<svg xmlns="http://www.w3.org/2000/svg" viewBox="0 0 370.777 589.827">
  <g id="グループ_41" data-name="グループ 41" transform="translate(-19.077 -1783.035)" opacity="0.15">
    <g id="パス_4" data-name="パス 4" transform="translate(-2.375 1783.035)" fill="none">
      <path d="M189.212,0c54.314,0,60.272,76.88,95.432,130.14,33.56,50.837,107.584,77.473,107.584,154.145,0,156.473-15.061,305.542-121.559,305.542a126.349,126.349,0,0,1-28.335-3.39C195.167,575.6,194.69,490.876,153.492,440.5c-47.312-57.848-132.04-85.959-132.04-162.615C21.452,121.415,82.715,0,189.212,0Z" stroke="none"/>
      <path d="M 189.2124481201172 1 C 163.5012817382812 1 139.752685546875 8.1488037109375 118.6263732910156 22.247802734375 C 98.41458129882812 35.736328125 80.79705810546875 55.424072265625 66.2630615234375 80.76409912109375 C 59.19613647460938 93.08526611328125 52.84628295898438 106.806640625 47.38983154296875 121.5470275878906 C 41.97442626953125 136.1764221191406 37.35659790039062 152.0317077636719 33.66452026367188 168.6724853515625 C 29.97781372070312 185.2891845703125 27.15921020507812 202.9367065429688 25.28704833984375 221.1249389648438 C 23.40576171875 239.4013977050781 22.451904296875 258.499267578125 22.451904296875 277.887939453125 C 22.451904296875 283.99365234375 23.00643920898438 290.0029602050781 24.10006713867188 295.7488708496094 C 25.14404296875 301.2342529296875 26.71536254882812 306.6666259765625 28.77020263671875 311.89501953125 C 32.57659912109375 321.5797119140625 38.07467651367188 330.8301696777344 45.5787353515625 340.1749267578125 C 48.94735717773438 344.3699340820312 52.65805053710938 348.5140991210938 56.92276000976562 352.84423828125 C 60.734375 356.7143249511719 64.90982055664062 360.650634765625 69.68768310546875 364.8781127929688 C 78.58737182617188 372.7525024414062 87.93682861328125 380.1950073242188 97.835205078125 388.0745544433594 C 117.6570434570312 403.8535766601562 138.1537475585938 420.1698608398438 154.2661437988281 439.8702392578125 C 158.4361267089844 444.9689331054688 162.2928314208984 450.5151062011719 166.0565948486328 456.8256225585938 C 169.3852081298828 462.4066467285156 172.550048828125 468.4381713867188 175.7319793701172 475.2648010253906 C 181.6085968017578 487.8728637695312 186.4823608398438 500.949951171875 191.1955871582031 513.5964965820312 C 197.6992797851562 531.0472412109375 203.8423614501953 547.5301513671875 211.7562866210938 560.4136962890625 C 215.960205078125 567.2575073242188 220.3294372558594 572.5537719726562 225.1136779785156 576.6053466796875 C 227.6767425537109 578.7759399414062 230.4039764404297 580.6104125976562 233.2196655273438 582.0579223632812 C 236.1559753417969 583.5675048828125 239.2978973388672 584.7127075195312 242.5582122802734 585.4618530273438 C 252.2745971679688 587.694580078125 261.7326049804688 588.82666015625 270.6696166992188 588.82666015625 C 277.16552734375 588.82666015625 283.4669189453125 588.2564086914062 289.3987426757812 587.1317749023438 C 295.20166015625 586.0316162109375 300.8165283203125 584.3695068359375 306.0873718261719 582.1914672851562 C 311.2425842285156 580.0613403320312 316.2169189453125 577.3764038085938 320.8719787597656 574.21142578125 C 325.4239807128906 571.116455078125 329.8019104003906 567.473388671875 333.8839721679688 563.38330078125 C 337.8726806640625 559.386962890625 341.693603515625 554.848876953125 345.2408142089844 549.8952026367188 C 348.70166015625 545.0620727539062 352.0014343261719 539.6942749023438 355.0485229492188 533.9407958984375 C 358.0155029296875 528.3385620117188 360.8286743164062 522.2088012695312 363.4097595214844 515.7218627929688 C 365.9170532226562 509.4202575683594 368.2782897949219 502.5982666015625 370.4279174804688 495.4452514648438 C 374.5179138183594 481.8357238769531 378.0279846191406 466.3966369628906 380.8607482910156 449.5567932128906 C 383.4813537597656 433.9783325195312 385.619140625 416.6161804199219 387.2147521972656 397.9525756835938 C 388.6797485351562 380.8174133300781 389.7130432128906 362.6151733398438 390.3739013671875 342.3058471679688 C 390.948974609375 324.6302490234375 391.228515625 305.6513977050781 391.228515625 284.2847900390625 C 391.228515625 278.2033386230469 390.7489013671875 272.2201843261719 389.802978515625 266.5015563964844 C 388.9025268554688 261.0576477050781 387.5494384765625 255.6735534667969 385.7813720703125 250.4987182617188 C 382.5193481445312 240.9513244628906 377.8300476074219 231.88525390625 371.4455871582031 222.7824096679688 C 366.1201171875 215.1893920898438 359.4940490722656 207.4445495605469 351.1887512207031 199.10546875 C 343.7752685546875 191.661865234375 335.7643737792969 184.4679565429688 328.0172119140625 177.5109558105469 C 319.9817504882812 170.2950134277344 311.6728210449219 162.83349609375 304.120361328125 155.1640930175781 C 295.6391296386719 146.5514831542969 288.995361328125 138.5461730957031 283.8095092773438 130.6905517578125 C 272.2740478515625 113.216552734375 263.9566650390625 93.4224853515625 255.9131317138672 74.2801513671875 C 247.7288208007812 54.80303955078125 239.9985198974609 36.406005859375 229.7904357910156 22.91217041015625 C 224.3730621337891 15.75091552734375 218.6859741210938 10.52130126953125 212.4043579101562 6.92449951171875 C 209.033447265625 4.99432373046875 205.4295196533203 3.51971435546875 201.6925964355469 2.54156494140625 C 197.7848968505859 1.51861572265625 193.5859832763672 1 189.2124481201172 1 M 189.2124481201172 0 C 243.5261383056641 0 249.4847412109375 76.8800048828125 284.64404296875 130.1396484375 C 318.2041320800781 180.9764709472656 392.228515625 207.6129455566406 392.228515625 284.2847900390625 C 392.228515625 440.7578125 377.1670532226562 589.82666015625 270.6696166992188 589.82666015625 C 261.5108032226562 589.82666015625 252.0841369628906 588.6768798828125 242.3342895507812 586.4364624023438 C 195.1665954589844 575.5986938476562 194.6900634765625 490.8758544921875 153.4920654296875 440.5033264160156 C 106.1802062988281 382.6557006835938 21.451904296875 354.5446166992188 21.451904296875 277.887939453125 C 21.451904296875 121.4148559570312 82.7149658203125 0 189.2124481201172 0 Z" stroke="none" fill="#ebebeb"/>
    </g>
    <g id="パス_5" data-name="パス 5" transform="translate(7.625 1796.662)" fill="none">
      <path d="M175.767,0c49.961,0,50.692,72.189,83.033,122.3,30.87,47.828,103.712,73.03,103.712,145.165,0,147.214-13.854,287.461-111.816,287.461a113.76,113.76,0,0,1-26.064-3.19c-43.387-10.2-43.826-89.906-81.722-137.3C99.39,360.012,21.452,333.564,21.452,261.444,21.452,114.23,77.805,0,175.767,0Z" stroke="none"/>
      <path d="M 175.7671508789062 0.99993896484375 C 152.1365051269531 0.99993896484375 130.3091430664062 7.72039794921875 110.891357421875 20.97454833984375 C 92.30877685546875 33.6585693359375 76.11029052734375 52.173828125 62.74594116210938 76.0057373046875 C 56.2467041015625 87.595458984375 50.4068603515625 100.5023193359375 45.38864135742188 114.3680419921875 C 40.40792846679688 128.1298217773438 36.16070556640625 143.0450134277344 32.7650146484375 158.6992492675781 C 29.37408447265625 174.3311767578125 26.78158569335938 190.9328918457031 25.0595703125 208.0433959960938 C 23.3292236328125 225.2370300292969 22.45187377929688 243.2033996582031 22.45187377929688 261.4435424804688 C 22.45187377929688 267.1856079101562 22.96173095703125 272.8368835449219 23.96722412109375 278.2404479980469 C 24.92715454101562 283.3987426757812 26.37179565429688 288.5071105957031 28.26101684570312 293.4236755371094 C 31.76043701171875 302.5303955078125 36.81521606445312 311.2288818359375 43.71429443359375 320.0161743164062 C 49.50106811523438 327.3866577148438 56.7525634765625 334.9861755371094 65.88314819335938 343.2490234375 C 74.06814575195312 350.6560974121094 82.66757202148438 357.6576538085938 91.7718505859375 365.0702514648438 C 110.0079956054688 379.9180297851562 128.8650817871094 395.271240234375 143.6906433105469 413.8115234375 C 150.8437194824219 422.7568359375 157.3048553466797 433.6531677246094 163.443359375 447.1231689453125 C 168.8497924804688 458.98681640625 173.3332214355469 471.2909545898438 177.6690063476562 483.1898803710938 C 183.6506500244141 499.6057434082031 189.3005828857422 515.1111450195312 196.5776519775391 527.22802734375 C 200.4412841796875 533.6611938476562 204.4560089111328 538.6390380859375 208.8512878417969 542.446044921875 C 211.2043609619141 544.4841918945312 213.7078552246094 546.2066040039062 216.2922210693359 547.5655517578125 C 218.9863586425781 548.982177734375 221.8690795898438 550.056884765625 224.8602905273438 550.7598266601562 C 233.7907257080078 552.858642578125 242.483154296875 553.9229125976562 250.6959381103516 553.9229125976562 C 256.6648559570312 553.9229125976562 262.4547729492188 553.3870239257812 267.9049987792969 552.3302001953125 C 273.2362060546875 551.29638671875 278.3947143554688 549.7344970703125 283.237060546875 547.6879272460938 C 287.9735717773438 545.6861572265625 292.5438537597656 543.1630859375 296.8210754394531 540.188720703125 C 301.0042724609375 537.2797241210938 305.027587890625 533.8552856445312 308.779296875 530.0106201171875 C 312.44580078125 526.2532348632812 315.9582824707031 521.9863891601562 319.2192077636719 517.3286743164062 C 322.4013061523438 512.7835693359375 325.4353637695312 507.7355346679688 328.237060546875 502.3246765136719 C 333.6127319335938 491.943115234375 338.3712768554688 479.7605895996094 342.3804931640625 466.1155395507812 C 346.1422119140625 453.3129577636719 349.3705749511719 438.7891845703125 351.97607421875 422.9474487304688 C 354.3864440917969 408.2918701171875 356.352783203125 391.9581909179688 357.8204345703125 374.4000244140625 C 359.1679382324219 358.279541015625 360.1184387207031 341.1550903320312 360.7262268066406 322.0483093261719 C 361.2552185058594 305.4190979003906 361.5123596191406 287.5636596679688 361.5123596191406 267.4618835449219 C 361.5123596191406 261.8091125488281 361.0513000488281 256.2428894042969 360.1419372558594 250.9178161621094 C 359.2764892578125 245.8502502441406 357.9763488769531 240.8340148925781 356.2774963378906 236.0084533691406 C 353.1440734863281 227.107666015625 348.6417846679688 218.6438903808594 342.5133666992188 210.13330078125 C 337.4033508300781 203.0371704101562 331.0508728027344 195.7958068847656 323.0927124023438 187.9955139160156 C 315.9921569824219 181.035888671875 308.3365783691406 174.3209533691406 300.9330749511719 167.8270874023438 C 293.0228576660156 160.8888854980469 284.8433532714844 153.7143859863281 277.4846496582031 146.3513793945312 C 273.5184326171875 142.3829650878906 270.0890808105469 138.6673889160156 267.0005798339844 134.9923706054688 C 263.531494140625 130.8646850585938 260.5744323730469 126.8893127441406 257.9602966308594 122.8391723632812 C 252.9590759277344 115.0905151367188 248.2635040283203 106.1139526367188 243.605224609375 95.39639282226562 C 239.4947204589844 85.9390869140625 235.9108581542969 76.31365966796875 232.4450073242188 67.00515747070312 C 225.8742218017578 49.35772705078125 219.6678619384766 32.68902587890625 211.0935821533203 20.5750732421875 C 206.55615234375 14.16461181640625 201.6966400146484 9.48797607421875 196.2372894287109 6.27801513671875 C 193.3119354248047 4.5579833984375 190.1570739746094 3.2440185546875 186.8605804443359 2.37286376953125 C 183.4134979248047 1.4619140625 179.68115234375 0.99993896484375 175.7671508789062 0.99993896484375 M 175.7671508789062 -6.103515625e-05 C 225.7278594970703 -6.103515625e-05 226.4590759277344 72.18896484375 258.8005065917969 122.296875 C 289.6709289550781 170.1253967285156 362.5123596191406 195.3271789550781 362.5123596191406 267.4618835449219 C 362.5123596191406 414.6753845214844 348.6580810546875 554.9229125976562 250.6959381103516 554.9229125976562 C 242.2711486816406 554.9229125976562 233.6000061035156 553.8411254882812 224.6315002441406 551.7333374023438 C 181.2440795898438 541.5368041992188 180.8057861328125 461.8276672363281 142.9096527099609 414.43603515625 C 99.3896484375 360.0115356445312 21.45187377929688 333.5640258789062 21.45187377929688 261.4435424804688 C 21.45187377929688 114.2299499511719 77.80499267578125 -6.103515625e-05 175.7671508789062 -6.103515625e-05 Z" stroke="none" fill="#ebebeb"/>
    </g>
    <g id="パス_6" data-name="パス 6" transform="translate(27.567 1820.084)" fill="none">
      <path d="M157.722,0c44.118,0,37.607,65.624,66.167,111.5,27.26,43.791,98.741,67.336,98.741,133.381,0,134.786-12.234,263.194-98.741,263.194a97.07,97.07,0,0,1-23.016-2.92c-38.314-9.336-38.7-82.316-72.165-125.707C90.276,329.62,21.452,305.4,21.452,239.373,21.452,104.587,71.215,0,157.722,0Z" stroke="none"/>
      <path d="M 157.7215270996094 1.000030517578125 C 136.8843994140625 1.000030517578125 117.6363983154297 7.1448974609375 100.5121612548828 19.26400756835938 C 84.11566162109375 30.86801147460938 69.8214111328125 47.80938720703125 58.02639770507812 69.61740112304688 C 52.28897094726562 80.225341796875 47.133544921875 92.03933715820312 42.70327758789062 104.7311401367188 C 38.305908203125 117.3288269042969 34.5560302734375 130.9823913574219 31.55783081054688 145.3127136230469 C 25.51559448242188 174.1929626464844 22.451904296875 205.8393249511719 22.451904296875 239.3727111816406 C 22.451904296875 244.626953125 22.90185546875 249.7981567382812 23.78927612304688 254.7425231933594 C 24.63629150390625 259.4620361328125 25.91110229492188 264.1357727050781 27.57815551757812 268.6339721679688 C 30.6658935546875 276.96533203125 35.1260986328125 284.9232177734375 41.21365356445312 292.9623413085938 C 46.32046508789062 299.7063903808594 52.72039794921875 306.660400390625 60.77914428710938 314.2218322753906 C 68.00497436523438 321.0017700195312 75.59765625 327.4113159179688 83.63623046875 334.1972045898438 C 99.74397277832031 347.7950134277344 116.4001617431641 361.855712890625 129.4982757568359 378.8389587402344 C 135.8189086914062 387.0343933105469 141.5276489257812 397.0162048339844 146.9507751464844 409.3546447753906 C 151.7260284423828 420.2190856933594 155.6855926513672 431.4856567382812 159.5147247314453 442.3812866210938 C 164.7958374023438 457.4082641601562 169.7840881347656 471.6018371582031 176.206787109375 482.68994140625 C 179.6139678955078 488.572021484375 183.1532135009766 493.1224060058594 187.0269012451172 496.6011962890625 C 189.0982208251953 498.4613342285156 191.3014068603516 500.0331420898438 193.5753479003906 501.2728271484375 C 195.9442138671875 502.5643310546875 198.4787139892578 503.5440063476562 201.1084747314453 504.1848449707031 C 208.9832763671875 506.1036987304688 216.6474609375 507.0766296386719 223.8881530761719 507.0766296386719 C 229.1493530273438 507.0766296386719 234.2524719238281 506.5869445800781 239.0557861328125 505.6212768554688 C 243.7537231445312 504.6767578125 248.2993469238281 503.249755859375 252.56640625 501.3799438476562 C 256.74072265625 499.55078125 260.768798828125 497.2450866699219 264.5387878417969 494.5268859863281 C 268.2271118164062 491.8675842285156 271.7747192382812 488.73681640625 275.0831604003906 485.2215270996094 C 278.3174743652344 481.7850036621094 281.4160766601562 477.8822021484375 284.2930908203125 473.62158203125 C 287.1011047363281 469.4630737304688 289.7785949707031 464.8440856933594 292.2512817382812 459.8929443359375 C 296.9964599609375 450.3915100097656 301.197021484375 439.2412109375 304.7363891601562 426.7518310546875 C 308.0575866699219 415.0321960449219 310.907958984375 401.7366333007812 313.2084045410156 387.2344360351562 C 315.3367309570312 373.8173828125 317.0729675292969 358.8638916015625 318.368896484375 342.7893371582031 C 319.5587158203125 328.0305786132812 320.3980407714844 312.3526000976562 320.9347229003906 294.8596496582031 C 321.40185546875 279.6347045898438 321.62890625 263.2872009277344 321.62890625 244.8829040527344 C 321.62890625 239.7951354980469 321.1909790039062 234.7775268554688 320.3272705078125 229.9692687988281 C 319.5056457519531 225.3955688476562 318.2716064453125 220.8611450195312 316.6592712402344 216.491943359375 C 313.6862182617188 208.4350891113281 309.4170837402344 200.7535705566406 303.6080932617188 193.0082702636719 C 292.7985229492188 178.5958251953125 278.3305969238281 166.3448791503906 264.339111328125 154.4973449707031 C 256.5860290527344 147.9323425292969 248.569091796875 141.1438293457031 241.4709777832031 134.2008361816406 C 237.6452789306641 130.4588317871094 234.3663940429688 126.9556274414062 231.447021484375 123.4912109375 C 228.168212890625 119.6002197265625 225.4180297851562 115.8511962890625 223.0392150878906 112.0299682617188 C 218.2926635742188 104.4050903320312 214.0887145996094 95.55645751953125 210.1871490478516 84.9783935546875 C 206.7559661865234 75.67562866210938 204.0005950927734 66.29794311523438 201.3359069824219 57.22894287109375 C 196.8768463134766 42.05300903320312 192.6650238037109 27.7186279296875 186.2073364257812 17.45095825195312 C 182.8079681396484 12.04608154296875 179.0228424072266 8.109771728515625 174.6355285644531 5.417144775390625 C 172.2895965576172 3.977386474609375 169.7207183837891 2.877899169921875 167.0002136230469 2.149078369140625 C 164.1540374755859 1.38665771484375 161.0322875976562 1.000030517578125 157.7215270996094 1.000030517578125 M 157.7215270996094 3.0517578125e-05 C 201.8399047851562 3.0517578125e-05 195.3286590576172 65.62356567382812 223.8881530761719 111.50146484375 C 251.1485290527344 155.2922668457031 322.62890625 178.8378295898438 322.62890625 244.8829040527344 C 322.62890625 379.6687622070312 310.3947143554688 508.0766296386719 223.8881530761719 508.0766296386719 C 216.4485931396484 508.0766296386719 208.7914123535156 507.0862121582031 200.8717193603516 505.1564025878906 C 162.5580291748047 495.8206481933594 162.1709747314453 422.8405151367188 128.7064056396484 379.4496459960938 C 90.27558898925781 329.61962890625 21.451904296875 305.40478515625 21.451904296875 239.3727111816406 C 21.451904296875 104.5867614746094 71.215087890625 3.0517578125e-05 157.7215270996094 3.0517578125e-05 Z" stroke="none" fill="#ebebeb"/>
    </g>
  </g>
</svg>
