<svg xmlns="http://www.w3.org/2000/svg" viewBox="0 0 296.828 57.919">
  <path id="中マド_1" data-name="中マド 1" d="M-1952.7-2426.373h-4.805v-41.66l3.9-1.524h.908v6.241a25.934,25.934,0,0,1,2.417-2.446,18.131,18.131,0,0,1,2.7-1.978,13.537,13.537,0,0,1,3.018-1.333,11.567,11.567,0,0,1,3.354-.483,9.762,9.762,0,0,1,4.585,1.084,10.718,10.718,0,0,1,3.515,2.958,13.97,13.97,0,0,1,2.241,4.41,18.224,18.224,0,0,1,.791,5.434,24.2,24.2,0,0,1-.967,7,16.857,16.857,0,0,1-2.784,5.523,12.911,12.911,0,0,1-4.409,3.632,12.882,12.882,0,0,1-5.845,1.3,14.93,14.93,0,0,1-2.212-.161,12.243,12.243,0,0,1-2.109-.513,12.665,12.665,0,0,1-2.1-.937,20.062,20.062,0,0,1-2.2-1.435v14.881Zm8.847-39.17a7.609,7.609,0,0,0-2.71.483,11.013,11.013,0,0,0-2.388,1.26,14.745,14.745,0,0,0-2.066,1.743,19.924,19.924,0,0,0-1.684,1.933v13.037a4.653,4.653,0,0,0,.63,2.211,7.4,7.4,0,0,0,1.758,2.11,9.865,9.865,0,0,0,2.7,1.582,9.261,9.261,0,0,0,3.471.63,7.137,7.137,0,0,0,3.369-.835,8.664,8.664,0,0,0,2.769-2.344,11.385,11.385,0,0,0,1.86-3.662,16.069,16.069,0,0,0,.673-4.79,24.088,24.088,0,0,0-.63-5.816,13.435,13.435,0,0,0-1.742-4.175,7.68,7.68,0,0,0-2.651-2.519A6.864,6.864,0,0,0-1943.858-2465.543ZM-1692-2434h-236v-12h7.638v-36.74l3.9-1.552h.908v20.244a24.138,24.138,0,0,1,6.416-4.262,15.033,15.033,0,0,1,5.771-1.246,5.561,5.561,0,0,1,2.711.7,7.083,7.083,0,0,1,2.211,1.934,9.719,9.719,0,0,1,1.479,2.885,11.316,11.316,0,0,1,.542,3.531v14.5h8.107a16.733,16.733,0,0,1-1.076-6.037,15.657,15.657,0,0,1,3.486-10.166,11.528,11.528,0,0,1,4.014-3.208,11.805,11.805,0,0,1,5.069-1.069,10.4,10.4,0,0,1,7.236,2.857c2.061,1.9,3.106,4.622,3.106,8.1h-18.6c.183,4.244,1.11,7.448,2.757,9.523h14.061a13.237,13.237,0,0,1-1.964,1.873,8.327,8.327,0,0,1-5.186,1.612,8.614,8.614,0,0,1-6.592-3.106c-.107-.12-.215-.247-.319-.379h-5.988a15.714,15.714,0,0,0,1.927,3.543,9.76,9.76,0,0,0,3.63,3.12,11.031,11.031,0,0,0,4.882,1.04,11.267,11.267,0,0,0,8.071-3.164,18.138,18.138,0,0,0,3.5-4.54h-1.963a19.849,19.849,0,0,0,1.932-2.7l1.026.352a14.579,14.579,0,0,1-.995,2.345h8.231v-22.033l3.9-1.524h.909v6.211c1.022-.825,2.077-1.618,3.135-2.358a35.158,35.158,0,0,1,3.178-1.993,19.122,19.122,0,0,1,3.033-1.362,8.537,8.537,0,0,1,2.724-.5,7.554,7.554,0,0,1,2.49.44,9.211,9.211,0,0,1,2.358,1.23,8.3,8.3,0,0,1,1.9,1.919,6.315,6.315,0,0,1,1.069,2.5c.667-.627,1.466-1.3,2.373-2.007a26.388,26.388,0,0,1,2.945-1.977,19.843,19.843,0,0,1,3.237-1.508,9.7,9.7,0,0,1,3.281-.6,6.48,6.48,0,0,1,3.018.747,8.569,8.569,0,0,1,2.534,2.021,10.1,10.1,0,0,1,1.758,2.989,10.117,10.117,0,0,1,.66,3.647V-2446h8.107a16.729,16.729,0,0,1-1.076-6.037,15.653,15.653,0,0,1,3.487-10.166,11.521,11.521,0,0,1,4.013-3.208,11.805,11.805,0,0,1,5.069-1.069,10.4,10.4,0,0,1,7.236,2.857c2.061,1.895,3.106,4.62,3.106,8.1h-18.6c.183,4.243,1.11,7.447,2.757,9.523h14.061a13.212,13.212,0,0,1-1.965,1.873,8.322,8.322,0,0,1-5.186,1.612,8.614,8.614,0,0,1-6.592-3.106c-.11-.123-.217-.25-.319-.379h-5.987a15.71,15.71,0,0,0,1.927,3.543,9.754,9.754,0,0,0,3.629,3.12,11.032,11.032,0,0,0,4.882,1.04,11.264,11.264,0,0,0,8.071-3.164,18.119,18.119,0,0,0,3.5-4.54h-1.963a19.831,19.831,0,0,0,1.932-2.7l1.025.352a14.582,14.582,0,0,1-.994,2.345h8.23v-22.062l3.867-1.494h.117l.791,6.124a22.663,22.663,0,0,1,2.359-2.462,19.075,19.075,0,0,1,2.549-1.933,12.308,12.308,0,0,1,2.666-1.274,8.455,8.455,0,0,1,2.68-.455,8.157,8.157,0,0,1,2.315.338,8.129,8.129,0,0,1,2.168,1.011l-1.641,4.335a10.412,10.412,0,0,0-1.347-.717,6.208,6.208,0,0,0-1.143-.366,6.467,6.467,0,0,0-1.172-.132c-.448-.01-.921-.014-1.406-.014a6.516,6.516,0,0,0-2.52.513,9.7,9.7,0,0,0-2.285,1.347,11.123,11.123,0,0,0-1.875,1.89,12.19,12.19,0,0,0-1.348,2.138V-2446h20.817c-.209-.4-.4-.809-.572-1.218a14.479,14.479,0,0,1-1.113-5.639,21.242,21.242,0,0,1,1.011-6.665,16.023,16.023,0,0,1,2.871-5.288,13.353,13.353,0,0,1,4.468-3.487,13.223,13.223,0,0,1,5.8-1.26,12.625,12.625,0,0,1,5.157,1.041,12.924,12.924,0,0,1,4.043,2.783,12.585,12.585,0,0,1,2.636,4.028,12.512,12.512,0,0,1,.938,4.775h-22.353a18.474,18.474,0,0,0,.82,5.6,14,14,0,0,0,2.3,4.453,11.656,11.656,0,0,0,.769.88h-6.774a14.421,14.421,0,0,0,2.46,3.4,14.472,14.472,0,0,0,4.482,3.106,13.406,13.406,0,0,0,5.494,1.142,11.48,11.48,0,0,0,4.351-.878,15.262,15.262,0,0,0,4-2.417,17.5,17.5,0,0,0,3.237-3.574c.173-.253.341-.514.5-.775H-1692v12Zm-83.225-12v7h4.775v-7h-4.775Zm-43.124,0v7h4.775v-7h-4.775Zm-19.805,0v7h4.775v-7h15.03v-13.332a6.009,6.009,0,0,0-.484-2.388,6.671,6.671,0,0,0-1.289-1.977,6.093,6.093,0,0,0-1.889-1.348,5.434,5.434,0,0,0-2.285-.5,6.044,6.044,0,0,0-2.49.6,15.956,15.956,0,0,0-2.549,1.465,27.07,27.07,0,0,0-2.3,1.8c-.7.615-1.289,1.167-1.743,1.641V-2446Zm-19.922,0v7h4.805v-7h15.116v-13.332a6.977,6.977,0,0,0-.41-2.388,6.167,6.167,0,0,0-1.157-1.977,5.48,5.48,0,0,0-1.816-1.348,5.613,5.613,0,0,0-2.388-.5,6.084,6.084,0,0,0-2.432.6,21,21,0,0,0-2.666,1.436c-.875.554-1.7,1.136-2.461,1.729s-1.357,1.1-1.786,1.508V-2446Zm-43.125,0v7h4.775v-7h-4.775Zm-19.16,0v7h4.805v-7h14.355v-13.479a7.951,7.951,0,0,0-.4-2.622,5.258,5.258,0,0,0-1.113-1.89,4.746,4.746,0,0,0-1.714-1.157,5.853,5.853,0,0,0-2.168-.4,7.952,7.952,0,0,0-2.182.322,13.712,13.712,0,0,0-2.285.894,18.367,18.367,0,0,0-2.3,1.362,20.643,20.643,0,0,0-2.2,1.759V-2446Zm124.688-18.341a5.621,5.621,0,0,0-5.1,2.958,11.691,11.691,0,0,0-1.348,3.984h12.363a12.2,12.2,0,0,0-1.113-4.365A5.075,5.075,0,0,0-1795.674-2464.341Zm-82.851,0a5.621,5.621,0,0,0-5.1,2.958,11.687,11.687,0,0,0-1.348,3.984h12.363a12.222,12.222,0,0,0-1.113-4.365A5.075,5.075,0,0,0-1878.525-2464.341Zm139.512-2.989a6.764,6.764,0,0,0-2.8.6,7.885,7.885,0,0,0-2.388,1.669,8.864,8.864,0,0,0-1.729,2.534,9.029,9.029,0,0,0-.791,3.164l15.439.03h.586a7.8,7.8,0,0,0-.644-3.164,7.783,7.783,0,0,0-1.772-2.533,8.4,8.4,0,0,0-2.651-1.685A8.64,8.64,0,0,0-1739.013-2467.33Zm-238.3,29.033a11.034,11.034,0,0,1-4.881-1.04,9.755,9.755,0,0,1-3.629-3.12,16.015,16.015,0,0,1-3-9.58,15.653,15.653,0,0,1,3.487-10.166,11.524,11.524,0,0,1,4.014-3.208,11.8,11.8,0,0,1,5.068-1.069,10.4,10.4,0,0,1,7.236,2.857c2.061,1.9,3.106,4.621,3.106,8.1h-18.6c.194,4.509,1.229,7.841,3.076,9.9a8.614,8.614,0,0,0,6.592,3.106,8.324,8.324,0,0,0,5.186-1.612,16.236,16.236,0,0,0,3.9-4.57l1.025.352a16.738,16.738,0,0,1-4.5,6.885A11.264,11.264,0,0,1-1977.314-2438.3Zm-.644-26.044a5.62,5.62,0,0,0-5.1,2.958,11.688,11.688,0,0,0-1.348,3.984h12.363a12.194,12.194,0,0,0-1.113-4.365A5.075,5.075,0,0,0-1977.959-2464.341Zm242.344,21.445a9.676,9.676,0,0,1-4.5-1.055,10.612,10.612,0,0,1-2.746-2.049h15.821a11.953,11.953,0,0,1-1.238.922,14.03,14.03,0,0,1-3.4,1.581A12.988,12.988,0,0,1-1735.615-2442.9Zm8.577-3.1a10.406,10.406,0,0,0,1.31-1.335,7.739,7.739,0,0,0,1.45-2.622l.733.351a15.129,15.129,0,0,1-1.568,3.605Zm-151.986-23.41v0h0l-2.431,0,8.819-8.877a9.029,9.029,0,0,1,1.172-.967,2.553,2.553,0,0,1,1.494-.5,2.1,2.1,0,0,1,1.391.542,1.792,1.792,0,0,1,.63,1.421,2.12,2.12,0,0,1-.469,1.406,6.19,6.19,0,0,1-1.377,1.142Zm-99.434,0v0h0l-2.43,0,8.818-8.877a9.072,9.072,0,0,1,1.172-.967,2.553,2.553,0,0,1,1.494-.5,2.093,2.093,0,0,1,1.391.542,1.792,1.792,0,0,1,.63,1.421,2.116,2.116,0,0,1-.469,1.406,6.189,6.189,0,0,1-1.377,1.142Zm188.848,0h-2.432l-9.229-5.831a5.1,5.1,0,0,1-1.391-1.2,2.255,2.255,0,0,1-.425-1.348,1.776,1.776,0,0,1,.616-1.392,2.074,2.074,0,0,1,1.406-.542,2.516,2.516,0,0,1,1.407.425,7.885,7.885,0,0,1,1.23,1.011l8.817,8.875Z" transform="translate(1988.828 2484.292)"/>
</svg>
