<svg xmlns="http://www.w3.org/2000/svg" viewBox="0 0 301.246 404.48">
  <g id="グループ_49" data-name="グループ 49" transform="translate(-44.843 -1795.26)">
    <g id="パス_11" data-name="パス 11" transform="translate(23.459 1748.106)" fill="none" opacity="0.151">
      <path d="M102.5,47.153c44.118,0,92.828,18.47,121.388,64.348,27.26,43.791,98.741,67.336,98.741,133.381,0,134.786.293,145.048-64.271,185.3S97.836,449.291,64.371,405.9C25.94,356.07,21.452,305.4,21.452,239.373,21.452,104.587,15.994,47.153,102.5,47.153Z" stroke="none"/>
      <path d="M 102.500244140625 48.1533203125 C 88.86503601074219 48.1533203125 77.68634033203125 49.56826782226562 68.32546997070312 52.47900390625 C 59.08993530273438 55.35076904296875 51.6932373046875 59.6610107421875 45.7127685546875 65.656005859375 C 39.97067260742188 71.41207885742188 35.53402709960938 78.72882080078125 32.14935302734375 88.02432250976562 C 28.97930908203125 96.73037719726562 26.69625854492188 107.3093872070312 25.169677734375 120.3658142089844 C 22.24282836914062 145.3987426757812 22.31918334960938 176.8741760253906 22.41586303710938 216.7234802246094 C 22.43356323242188 224.0197143554688 22.45187377929688 231.5643310546875 22.45187377929688 239.3727111816406 C 22.45187377929688 258.7039794921875 22.85260009765625 273.1379699707031 23.75131225585938 286.173828125 C 24.84249877929688 302.0025939941406 26.71539306640625 315.8473510742188 29.4769287109375 328.4990844726562 C 32.56277465820312 342.636474609375 36.77749633789062 355.4689331054688 42.36203002929688 367.7296447753906 C 45.28570556640625 374.1486511230469 48.64572143554688 380.50732421875 52.34872436523438 386.6290283203125 C 56.15518188476562 392.921875 60.46652221679688 399.2002258300781 65.16293334960938 405.2897033691406 C 70.27450561523438 411.91748046875 76.9376220703125 418.1196899414062 84.96714782714844 423.72412109375 C 92.84698486328125 429.2240600585938 101.8938293457031 434.0472412109375 111.8563537597656 438.0597534179688 C 121.8433990478516 442.0821228027344 132.5378723144531 445.203857421875 143.642822265625 447.3383178710938 C 155.0186614990234 449.5248718261719 166.62109375 450.6334838867188 178.1278228759766 450.6334838867188 C 192.4364013671875 450.6334838867188 206.33544921875 448.9247131347656 219.4389801025391 445.5545959472656 C 233.41845703125 441.9591674804688 246.3345031738281 436.5025939941406 257.828369140625 429.3364868164062 C 266.9612426757812 423.642333984375 273.4885559082031 419.3560791015625 278.9926147460938 415.4386596679688 C 285.4000244140625 410.8782348632812 290.5779724121094 406.6788940429688 294.8222961425781 402.6007080078125 C 303.9662475585938 393.8146057128906 309.7719421386719 384.6851196289062 313.6467590332031 372.9990844726562 C 315.6060791015625 367.090087890625 317.1120910644531 360.3918151855469 318.2508239746094 352.521484375 C 319.3299255371094 345.0633850097656 320.1070251464844 336.3296508789062 320.6266174316406 325.8211059570312 C 321.6294555664062 305.5376586914062 321.6291809082031 279.5733642578125 321.6288757324219 246.7013854980469 L 321.6288757324219 244.8829040527344 C 321.6288757324219 239.795166015625 321.19091796875 234.7774963378906 320.3272399902344 229.9692687988281 C 319.5056762695312 225.3955993652344 318.2715454101562 220.8611145019531 316.6592407226562 216.4919128417969 C 313.6861877441406 208.4351196289062 309.4170837402344 200.7535400390625 303.6080322265625 193.0082702636719 C 292.7985229492188 178.5957946777344 278.3306274414062 166.3448486328125 264.3390502929688 154.4972839355469 C 256.5860290527344 147.9322814941406 248.569091796875 141.143798828125 241.4709320068359 134.2008666992188 C 237.6452941894531 130.4588012695312 234.3663940429688 126.9556579589844 231.4469909667969 123.4911804199219 C 228.1681823730469 119.6002197265625 225.4179840087891 115.8512268066406 223.0391845703125 112.0299072265625 C 216.2044525146484 101.0505981445312 207.9197235107422 91.23037719726562 198.4151916503906 82.84207153320312 C 189.5289306640625 74.99945068359375 179.4946136474609 68.33111572265625 168.5909881591797 63.02227783203125 C 148.6123046875 53.294921875 125.7585144042969 48.1533203125 102.500244140625 48.1533203125 M 102.500244140625 47.1533203125 C 146.6185607910156 47.1533203125 195.3286743164062 65.62359619140625 223.8881378173828 111.5014343261719 C 251.1485595703125 155.2922668457031 322.6288757324219 178.8377990722656 322.6288757324219 244.8829040527344 C 322.6288757324219 379.6688232421875 322.921875 389.9306945800781 258.357421875 430.18505859375 C 193.7929840087891 470.439453125 97.83567810058594 449.2913208007812 64.37109375 405.900390625 C 25.9403076171875 356.0703735351562 21.45187377929688 305.40478515625 21.45187377929688 239.3727111816406 C 21.45187377929688 104.5868225097656 15.9937744140625 47.1533203125 102.500244140625 47.1533203125 Z" stroke="none" fill="#ebebeb"/>
    </g>
    <g id="パス_12" data-name="パス 12" transform="translate(33.459 1755.106)" fill="none" opacity="0.151">
      <path d="M94.33,47.153c39.675,0,83.479,16.61,109.162,57.867,24.515,39.38,88.8,60.554,88.8,119.947,0,121.21.263,130.438-57.8,166.638S90.135,408.787,60.041,369.767c-34.56-44.811-38.6-90.374-38.6-149.755C21.445,98.8,16.537,47.153,94.33,47.153Z" stroke="none"/>
      <path d="M 94.33001708984375 48.1533203125 C 82.07846069335938 48.1533203125 72.03546142578125 49.42428588867188 63.62727355957031 52.03878784179688 C 55.33796691894531 54.6163330078125 48.69985961914062 58.48422241210938 43.3336181640625 63.863525390625 C 38.180419921875 69.02923583984375 34.19830322265625 75.59698486328125 31.15966796875 83.942138671875 C 28.31161499023438 91.76388549804688 26.26025390625 101.2698669433594 24.888427734375 113.0033264160156 C 22.25701904296875 135.5089721679688 22.32571411132812 163.8114318847656 22.41262817382812 199.6436767578125 C 22.42855834960938 206.2051391601562 22.44500732421875 212.9899291992188 22.44500732421875 220.0120239257812 C 22.44500732421875 237.3938293457031 22.80532836914062 250.3718719482422 23.61331176757812 262.0923461914062 C 24.59426879882812 276.3218688964844 26.27783203125 288.7673950195312 28.76016235351562 300.1399536132812 C 31.53363037109375 312.8463745117188 35.3216552734375 324.3796691894531 40.34066772460938 335.39892578125 C 42.96826171875 341.1678466796875 45.98800659179688 346.8825073242188 49.31597900390625 352.3843383789062 C 52.73712158203125 358.0401306152344 56.612060546875 363.6829833984375 60.83311462402344 369.1560668945312 C 65.42361450195312 375.1081848144531 71.40817260742188 380.6786193847656 78.62051391601562 385.7126770019531 C 85.70046997070312 390.6542663574219 93.82936096191406 394.9880676269531 102.7814178466797 398.5935668945312 C 111.7565155029297 402.2083740234375 121.3676147460938 405.0138854980469 131.3476715087891 406.93212890625 C 141.5714721679688 408.8971557617188 151.9988708496094 409.8935852050781 162.3402709960938 409.8935852050781 C 175.1991729736328 409.8935852050781 187.6899108886719 408.3579711914062 199.4654235839844 405.3293762207031 C 212.0269165039062 402.0986633300781 223.6325073242188 397.1957702636719 233.9599609375 390.7568664550781 C 248.0501708984375 381.9719848632812 259.0969848632812 374.5236206054688 267.2113037109375 366.726806640625 C 275.421875 358.8375854492188 280.6348266601562 350.6402282714844 284.1139526367188 340.1475830078125 C 285.8740234375 334.8394165039062 287.2270202636719 328.8214721679688 288.2502136230469 321.7498168945312 C 289.2201538085938 315.0460815429688 289.9187316894531 307.195068359375 290.3857727050781 297.7481079101562 C 291.2875061035156 279.5101318359375 291.2872619628906 256.1620788574219 291.2869567871094 226.6023712158203 L 291.2869567871094 224.9672698974609 C 291.2869567871094 220.3979187011719 290.8936767578125 215.8916320800781 290.1180114746094 211.5736389160156 C 289.3802185058594 207.4663391113281 288.2720336914062 203.3943786621094 286.8241271972656 199.4707641601562 C 284.1539306640625 192.2347106933594 280.3193664550781 185.3352355957031 275.1013793945312 178.3779602050781 C 265.3874206542969 165.4262390136719 252.3811187744141 154.4129638671875 239.8031158447266 143.7623291015625 C 232.8296203613281 137.857421875 225.6187133789062 131.75146484375 219.23291015625 125.5052795410156 C 215.7902679443359 122.1378784179688 212.8395080566406 118.9852294921875 210.2120208740234 115.8671875 C 207.2603759765625 112.3644104003906 204.7843627929688 108.9891662597656 202.642578125 105.5486755371094 C 196.5014190673828 95.68353271484375 189.0574645996094 86.85992431640625 180.5175628662109 79.32296752929688 C 172.5331726074219 72.27627563476562 163.5171203613281 66.28463745117188 153.7199249267578 61.51446533203125 C 135.7671661376953 52.77352905273438 115.23046875 48.1533203125 94.33001708984375 48.1533203125 M 94.33001708984375 47.1533203125 C 134.0046691894531 47.1533203125 177.8085632324219 63.76321411132812 203.4915161132812 105.0201721191406 C 228.0062255859375 144.4003601074219 292.2869567871094 165.5743103027344 292.2869567871094 224.9672698974609 C 292.2869567871094 346.1772766113281 292.5504150390625 355.4055786132812 234.489013671875 391.60546875 C 176.4275512695312 427.8053283691406 90.13525390625 408.7873229980469 60.04127502441406 369.7667846679688 C 25.4813232421875 324.9557189941406 21.44500732421875 279.3932800292969 21.44500732421875 220.0120239257812 C 21.44500732421875 98.80197143554688 16.53662109375 47.1533203125 94.33001708984375 47.1533203125 Z" stroke="none" fill="#ebebeb"/>
    </g>
    <g id="パス_13" data-name="パス 13" transform="translate(41.617 1762.106)" fill="none" opacity="0.151">
      <path d="M87.178,47.153c35.785,0,75.294,14.981,98.459,52.193,22.111,35.519,72.341,60.956,72.341,114.525,0,109.326,7.986,111.311-44.382,143.961s-130.2,15.5-157.344-19.7C25.08,297.718,21.439,256.623,21.439,203.064,21.439,93.738,17.012,47.153,87.178,47.153Z" stroke="none"/>
      <path d="M 87.17791748046875 48.1533203125 C 65.46882629394531 48.1533203125 50.87518310546875 52.646728515625 41.25086975097656 62.29440307617188 C 36.61328125 66.94332885742188 33.02900695800781 72.85543823242188 30.29327392578125 80.36871337890625 C 27.72709655761719 87.41632080078125 25.87860107421875 95.9830322265625 24.64208984375 106.5584411621094 C 22.2694091796875 126.8517150878906 22.33135986328125 152.3767395019531 22.40972900390625 184.6925048828125 C 22.42410278320312 190.6106872558594 22.43896484375 196.7303161621094 22.43896484375 203.0639953613281 C 22.43896484375 218.7392730712891 22.76385498046875 230.4428100585938 23.49249267578125 241.0117645263672 C 24.37692260742188 253.8413543701172 25.89474487304688 265.06201171875 28.1326904296875 275.3148803710938 C 30.63273620605469 286.7685852050781 34.04718017578125 297.1646118164062 38.57122802734375 307.0971069335938 C 40.93963623046875 312.2969360351562 43.6614990234375 317.4479370117188 46.66123962402344 322.4070434570312 C 49.74505615234375 327.5051879882812 53.2379150390625 332.5916748046875 57.04290771484375 337.5252685546875 C 61.17718505859375 342.8859252929688 66.56777954101562 347.9033203125 73.0648193359375 352.4380798339844 C 79.44450378417969 356.8909606933594 86.76986694335938 360.7962341308594 94.83732604980469 364.0455017089844 C 102.9266357421875 367.3035278320312 111.5892791748047 369.8321533203125 120.5846862792969 371.5611267089844 C 129.8000030517578 373.3323669433594 139.1988220214844 374.23046875 148.5200958251953 374.23046875 C 172.6507873535156 374.23046875 194.9703674316406 368.2670288085938 213.0658721923828 356.9849243164062 C 224.5175018310547 349.8451232910156 232.8864135742188 344.3015747070312 239.2156829833984 338.7340087890625 C 245.6387329101562 333.0839538574219 249.6886901855469 327.6023559570312 252.3474578857422 320.9603271484375 C 254.9463653564453 314.4678955078125 256.3801879882812 306.4114379882812 256.99658203125 294.837890625 C 257.5881042480469 283.7323608398438 257.4324951171875 269.5919189453125 257.2355041503906 251.689453125 C 257.1144714355469 240.6906280517578 256.9772644042969 228.2242736816406 256.9772644042969 213.8720855712891 C 256.9772644042969 209.5514984130859 256.6397399902344 205.2574462890625 255.9739532470703 201.1092681884766 C 255.3408203125 197.1641845703125 254.3899536132812 193.2220458984375 253.1477813720703 189.3923187255859 C 250.8583679199219 182.3339996337891 247.5734558105469 175.502685546875 243.1053771972656 168.508056640625 C 234.796875 155.5014038085938 223.7242736816406 144.1225891113281 213.0162353515625 133.1183471679688 C 207.8536834716797 127.8130493164062 202.5154113769531 122.3271484375 197.7005615234375 116.8521423339844 C 192.2255859375 110.6265563964844 188.1224060058594 105.2319946289062 184.7876892089844 99.8751220703125 C 179.2536926269531 90.98526000976562 172.5457763671875 83.03408813476562 164.8503265380859 76.24240112304688 C 157.6553649902344 69.89239501953125 149.5306854248047 64.49319458007812 140.7020111083984 60.194580078125 C 124.5227355957031 52.317138671875 106.0143737792969 48.1533203125 87.17791748046875 48.1533203125 M 87.17791748046875 47.1533203125 C 122.962646484375 47.1533203125 162.4718322753906 62.13467407226562 185.6366424560547 99.34664916992188 C 207.7477722167969 134.86572265625 257.9772644042969 160.3023681640625 257.9772644042969 213.8720855712891 C 257.9772644042969 323.197998046875 265.9637451171875 325.1828002929688 213.594970703125 357.83349609375 C 161.2261657714844 390.484130859375 83.39443969726562 373.3307189941406 56.25105285644531 338.135986328125 C 25.07949829101562 297.7184448242188 21.43896484375 256.6231689453125 21.43896484375 203.0639953613281 C 21.43896484375 93.73809814453125 17.01181030273438 47.1533203125 87.17791748046875 47.1533203125 Z" stroke="none" fill="#ebebeb"/>
    </g>
  </g>
</svg>
