<svg xmlns="http://www.w3.org/2000/svg" viewBox="0 0 1398 649.683">
  <g id="グループ_45" data-name="グループ 45" transform="translate(-235 -273.828)" opacity="0.3">
    <g id="パス_7" data-name="パス 7" transform="translate(235 274)" fill="none" opacity="0.45">
      <path d="M699,0c64.856,0,222.435,81.66,281.865,90.267,88.882,12.872,94.638,72.337,158.39,95.419C1287.652,239.414,1398,247.765,1398,365c0,142.117-132.16,212.985-359.372,273.319-94.835,25.182-243.353,0-357.237,0-152.875,0-202.375-100.771-313.527-131.021C197.99,461.068,0,486.757,0,365,0,258.564,17.216,191.063,156.78,124.164c44.514-21.338,88.967-21.483,181.443-37.619,37.467-6.538,115.254-53.878,131.534-62.178C525.005-3.8,608.622,0,699,0Z" stroke="none"/>
      <path d="M 642.508544921875 0.828369140625 C 610.7232666015625 0.828369140625 577.1547241210938 1.30621337890625 547.010009765625 4.77325439453125 C 531.564697265625 6.54962158203125 518.0758056640625 8.96038818359375 505.7725219726562 12.143310546875 C 499.2501831054688 13.83056640625 493.008544921875 15.76165771484375 487.220703125 17.8829345703125 C 481.2152709960938 20.08416748046875 475.4925537109375 22.5653076171875 470.2116088867188 25.25762939453125 C 467.0387573242188 26.87530517578125 461.4398193359375 30.02728271484375 454.3514404296875 34.01763916015625 C 439.9890747070312 42.10308837890625 418.2845458984375 54.322021484375 396.7828979492188 64.96240234375 C 384.9783935546875 70.8038330078125 374.367431640625 75.6058349609375 365.2447509765625 79.23455810546875 C 354.5169677734375 83.5018310546875 345.4832763671875 86.29254150390625 338.3948974609375 87.52947998046875 C 310.790771484375 92.34637451171875 287.6021728515625 95.71875 267.14306640625 98.6942138671875 C 243.74658203125 102.096923828125 223.54052734375 105.03564453125 205.8975830078125 108.9025268554688 C 196.64892578125 110.9296264648438 188.4296875 113.1338500976562 180.77001953125 115.6409301757812 C 172.50341796875 118.3465576171875 164.7978515625 121.4292602539062 157.21240234375 125.0654907226562 C 140.0062255859375 133.3131103515625 124.2882080078125 141.772216796875 110.4951171875 150.207275390625 C 96.92041015625 158.5087280273438 84.65478515625 167.1274719238281 74.03857421875 175.8236389160156 C 53.513671875 192.6367492675781 38.1025390625 210.4387512207031 26.924560546875 230.2471008300781 C 21.6173095703125 239.6520080566406 17.3096923828125 249.3782043457031 13.7552490234375 259.9814758300781 C 10.408935546875 269.9647521972656 7.8253173828125 280.45166015625 5.8565673828125 292.0416564941406 C 2.497802734375 311.8161926269531 1 334.3174743652344 1 365 C 1 370.1847229003906 1.3695068359375 375.2132873535156 2.0980224609375 379.9458312988281 C 2.8123779296875 384.5867309570312 3.8936767578125 389.0818176269531 5.3114013671875 393.3061828613281 C 6.7005615234375 397.4443664550781 8.45458984375 401.447998046875 10.5252685546875 405.205810546875 C 12.5516357421875 408.88330078125 14.943115234375 412.4378356933594 17.633056640625 415.7705688476562 C 20.26220703125 419.02783203125 23.2578125 422.1736450195312 26.536376953125 425.120361328125 C 29.7340087890625 427.9945678710938 33.3004150390625 430.7687377929688 37.1363525390625 433.3660278320312 C 40.8663330078125 435.8914794921875 44.9688720703125 438.3291015625 49.3299560546875 440.6112670898438 C 53.5535888671875 442.8214721679688 58.15576171875 444.9569091796875 63.008544921875 446.9583740234375 C 72.2618408203125 450.7743530273438 82.5205078125 454.1803588867188 94.37109375 457.3709106445312 C 105.0189208984375 460.2374572753906 116.776123046875 462.8783569335938 130.314697265625 465.4443664550781 C 155.6129150390625 470.2391052246094 183.15087890625 474.0158081054688 212.3057861328125 478.0141906738281 C 237.4940185546875 481.4685668945312 263.5396728515625 485.0405578613281 289.765625 489.5052795410156 C 319.466552734375 494.5618286132812 345.098388671875 500.0661926269531 368.1258544921875 506.3329162597656 C 378.7730712890625 509.2305603027344 389.0903930664062 512.8150634765625 399.6676635742188 517.2916259765625 C 409.09912109375 521.2832641601562 418.5314331054688 525.9019775390625 428.5032958984375 531.41162109375 C 447.0260009765625 541.6458129882812 464.7581787109375 553.5558471679688 481.9065551757812 565.073486328125 C 495.0198364257812 573.881103515625 508.5796508789062 582.988525390625 522.601806640625 591.440185546875 C 530.1500244140625 595.9898071289062 537.2069091796875 599.9794921875 544.1758422851562 603.6372680664062 C 552.0023803710938 607.7453002929688 559.51220703125 611.3296508789062 567.1341552734375 614.5949096679688 C 575.3245239257812 618.1036376953125 583.6585693359375 621.2271118164062 591.9043579101562 623.878173828125 C 600.7354736328125 626.71728515625 609.8236083984375 629.1309204101562 618.9163818359375 631.0516357421875 C 628.544921875 633.0856323242188 638.5323486328125 634.6423950195312 648.60107421875 635.6785278320312 C 659.1785278320312 636.7669067382812 670.2105712890625 637.3189086914062 681.390380859375 637.3189086914062 C 698.1961669921875 637.3189086914062 717.3525390625 637.876220703125 739.9537963867188 639.0227661132812 C 760.1387329101562 640.0467529296875 781.286376953125 641.4429321289062 801.7376098632812 642.7932739257812 C 844.3123779296875 645.6043701171875 888.3363647460938 648.5111083984375 929.1689453125 648.5111083984375 C 950.833251953125 648.5111083984375 969.766357421875 647.711669921875 987.0501708984375 646.0670776367188 C 996.4125366210938 645.1763916015625 1005.374389648438 644.0174560546875 1013.6865234375 642.62255859375 C 1022.407836914062 641.1591186523438 1030.712890625 639.3858032226562 1038.370849609375 637.3523559570312 C 1098.81396484375 621.3025512695312 1148.500732421875 605.5562133789062 1190.270385742188 589.213623046875 C 1201.409423828125 584.8552856445312 1212.170166015625 580.3770751953125 1222.253784179688 575.9028930664062 C 1232.549072265625 571.3348999023438 1242.466552734375 566.6258544921875 1251.730590820312 561.9065551757812 C 1261.167114257812 557.0993041992188 1270.222778320312 552.1301879882812 1278.645629882812 547.137451171875 C 1287.2080078125 542.0618286132812 1295.383422851562 536.8038330078125 1302.944946289062 531.5090942382812 C 1310.617431640625 526.1363525390625 1317.894775390625 520.5601806640625 1324.574584960938 514.9354858398438 C 1331.341796875 509.2369384765625 1337.703491210938 503.3138427734375 1343.482543945312 497.33056640625 C 1349.329223632812 491.2772827148438 1354.75830078125 484.9778442382812 1359.618774414062 478.6072998046875 C 1364.530029296875 472.1698303222656 1369.010009765625 465.4641723632812 1372.933959960938 458.6767578125 C 1376.8955078125 451.8247375488281 1380.41015625 444.6818237304688 1383.380737304688 437.446533203125 C 1386.377075195312 430.1487426757812 1388.91015625 422.5365600585938 1390.909423828125 414.8218383789062 C 1392.924560546875 407.0458374023438 1394.458129882812 398.9318237304688 1395.4677734375 390.7049255371094 C 1396.484497070312 382.4192810058594 1397 373.770751953125 1397 365 C 1397 359.1429138183594 1396.717407226562 353.4425659179688 1396.16015625 348.0570983886719 C 1395.610717773438 342.7452697753906 1394.77685546875 337.5756530761719 1393.682006835938 332.6920166015625 C 1392.60400390625 327.8836364746094 1391.2392578125 323.2025451660156 1389.625854492188 318.778564453125 C 1388.040161132812 314.4307250976562 1386.164184570312 310.1945495605469 1384.050048828125 306.1874694824219 C 1376.020874023438 290.9694519042969 1364.095825195312 277.9794616699219 1347.59326171875 266.47509765625 C 1333.1787109375 256.4263610839844 1315.186767578125 247.3672790527344 1290.971069335938 237.9654541015625 C 1269.115966796875 229.4803771972656 1244.17724609375 221.4947509765625 1217.7744140625 213.0403747558594 C 1192.662841796875 204.9996337890625 1166.696411132812 196.6849060058594 1138.914184570312 186.6261901855469 C 1132.404052734375 184.269287109375 1126.343505859375 181.4969177246094 1120.385986328125 178.1507263183594 C 1115.073852539062 175.1671142578125 1109.963134765625 171.7901916503906 1104.761596679688 167.8270874023438 C 1095.111328125 160.474365234375 1086.569091796875 152.129638671875 1078.308227539062 144.0594482421875 C 1066.925048828125 132.9392700195312 1055.154174804688 121.4403686523438 1040.028198242188 111.9812622070312 C 1031.887084960938 106.8901977539062 1023.473815917969 102.7973022460938 1014.307861328125 99.4683837890625 C 1009.333129882812 97.66162109375 1004.068908691406 96.06781005859375 998.6618041992188 94.73126220703125 C 992.97998046875 93.326904296875 986.9439697265625 92.15802001953125 980.7216796875 91.2567138671875 C 954.9132690429688 87.51910400390625 910.660400390625 70.05908203125 863.80908203125 51.57403564453125 C 832.88818359375 39.37420654296875 800.9147338867188 26.75909423828125 771.9567260742188 17.14801025390625 C 756.3157958984375 11.95672607421875 743.064697265625 8.1356201171875 731.4459838867188 5.466552734375 C 725.1365356445312 4.01708984375 719.2667236328125 2.907470703125 714 2.1685791015625 C 708.472900390625 1.39312744140625 703.4262084960938 1 699 1 C 689.2894287109375 1 679.552001953125 0.95562744140625 670.13525390625 0.9127197265625 C 661.0232543945312 0.87127685546875 651.6008911132812 0.828369140625 642.508544921875 0.828369140625 M 642.508544921875 -0.17156982421875 C 660.8978881835938 -0.17156982421875 679.7924194335938 0 699 0 C 763.8558349609375 0 921.4349365234375 81.6600341796875 980.8648681640625 90.26708984375 C 1069.74658203125 103.1396484375 1075.502685546875 162.6045532226562 1139.254516601562 185.6860046386719 C 1287.651611328125 239.413818359375 1398 247.7652893066406 1398 365 C 1398 507.1167297363281 1265.839965820312 577.9854736328125 1038.627685546875 638.3189086914062 C 1007.017761230469 646.7125244140625 969.4365234375 649.5111083984375 929.1689453125 649.5111083984375 C 848.6266479492188 649.5111083984375 757.3152465820312 638.3189086914062 681.390380859375 638.3189086914062 C 528.515625 638.3189086914062 479.0154418945312 537.5473022460938 367.86328125 507.2978210449219 C 197.9906005859375 461.0678100585938 0 486.7567443847656 0 365 C 0 258.5636596679688 17.21630859375 191.0634765625 156.7801513671875 124.1636352539062 C 201.2938232421875 102.8258056640625 245.7474365234375 102.6810913085938 338.22314453125 86.54437255859375 C 375.6900024414062 80.00653076171875 453.4769287109375 32.66693115234375 469.7574462890625 24.36676025390625 C 513.2637329101562 2.18597412109375 574.3696899414062 -0.17156982421875 642.508544921875 -0.17156982421875 Z" stroke="none" fill="#ebebeb"/>
    </g>
    <g id="パス_8" data-name="パス 8" transform="translate(311.746 299.816)" fill="none" opacity="0.45">
      <path d="M648.254-.012C708.4-.012,804.8,72.267,859.916,80.249c82.429,11.938,137.508,70.538,196.631,91.944,137.624,49.827,239.961,57.572,239.961,166.3,0,131.8-122.565,197.523-333.283,253.477-87.951,23.354-225.844-14.309-331.46-14.309-141.776,0-187.526-79.146-290.608-107.2C183.617,427.583,0,451.407,0,338.489,0,239.78,15.967,177.18,145.4,115.137c41.282-19.789,82.509-19.923,168.271-34.888,34.747-6.063,106.887-49.966,121.985-57.664C486.891-3.537,564.437-.012,648.254-.012Z" stroke="none"/>
      <path d="M 595.8635864257812 0.82843017578125 C 566.3878784179688 0.82843017578125 535.2589111328125 1.2716064453125 507.3065795898438 4.4864501953125 C 492.986083984375 6.1334228515625 480.4795532226562 8.36846923828125 469.07275390625 11.3194580078125 C 463.0262451171875 12.88360595703125 457.2400512695312 14.6739501953125 451.874755859375 16.64044189453125 C 446.3079223632812 18.6807861328125 441.0032348632812 20.9805908203125 436.1083984375 23.47613525390625 C 433.167236328125 24.97564697265625 427.9752197265625 27.89862060546875 421.4017333984375 31.59912109375 C 408.0814208984375 39.09796142578125 387.9515380859375 50.43048095703125 368.0092163085938 60.29913330078125 C 357.06005859375 65.71728515625 347.2177124023438 70.17144775390625 338.75537109375 73.5374755859375 C 328.8018798828125 77.49676513671875 320.4193725585938 80.0863037109375 313.8406982421875 81.23431396484375 C 288.2400512695312 85.70147705078125 266.734619140625 88.8291015625 247.7606201171875 91.58843994140625 C 226.063720703125 94.74395751953125 207.3255615234375 97.4691162109375 190.9659423828125 101.0547790527344 C 182.390869140625 102.9342956542969 174.7705078125 104.977783203125 167.669189453125 107.3021240234375 C 160.005859375 109.8102722167969 152.8624267578125 112.6681213378906 145.83056640625 116.0389404296875 C 129.8756103515625 123.6867980957031 115.3009033203125 131.5304565429688 102.5113525390625 139.3519592285156 C 89.9249267578125 147.0491027832031 78.5523681640625 155.0401306152344 68.7093505859375 163.1029663085938 C 49.681884765625 178.6896057128906 35.395263671875 195.192626953125 25.033203125 213.5549621582031 C 20.113525390625 222.2731323242188 16.120361328125 231.2891235351562 12.8255615234375 241.1181030273438 C 9.723388671875 250.3729553222656 7.3280029296875 260.0949401855469 5.5030517578125 270.8399658203125 C 2.388916015625 289.1747741699219 1.0001220703125 310.0386047363281 1.0001220703125 338.4894409179688 C 1.0001220703125 343.2941284179688 1.3424072265625 347.9537963867188 2.017333984375 352.3392944335938 C 2.679443359375 356.6390991210938 3.6810302734375 360.8037719726562 4.9947509765625 364.7176208496094 C 6.2816162109375 368.55126953125 7.9066162109375 372.2601318359375 9.82470703125 375.7412719726562 C 11.701904296875 379.1481323242188 13.9173583984375 382.4411010742188 16.409423828125 385.5284423828125 C 18.8453369140625 388.5464477539062 21.6207275390625 391.4609375 24.658447265625 394.1912841796875 C 27.621337890625 396.8546142578125 30.92626953125 399.42529296875 34.4810791015625 401.8321228027344 C 41.2718505859375 406.4301147460938 49.3402099609375 410.6687622070312 58.4619140625 414.4306030273438 C 67.0404052734375 417.9686279296875 76.551513671875 421.1262817382812 87.5386962890625 424.0842895507812 C 97.4117431640625 426.7422790527344 108.313720703125 429.1911010742188 120.8675537109375 431.5704345703125 C 144.3272705078125 436.0167846679688 169.865234375 439.5191040039062 196.902587890625 443.2271118164062 C 220.2626953125 446.4307861328125 244.4180908203125 449.7436218261719 268.7412109375 453.8844604492188 C 296.2883911132812 458.5742797851562 320.0617065429688 463.6796264648438 341.419921875 469.4921264648438 C 350.9887084960938 472.0961303710938 360.2762451171875 475.1811218261719 369.8130493164062 478.9232788085938 C 378.3115844726562 482.2579345703125 386.81787109375 486.04345703125 395.8180541992188 490.4959411621094 C 412.5294189453125 498.7632751464844 428.4872436523438 508.1601257324219 443.919921875 517.2476196289062 C 456.2807006835938 524.5263061523438 469.0623779296875 532.052978515625 482.2405395507812 539.011474609375 C 497.01708984375 546.8142700195312 510.6998901367188 553.0391235351562 524.0709228515625 558.0418090820312 C 540.1243896484375 564.048095703125 556.0579223632812 568.4599609375 572.7822265625 571.5296020507812 C 581.85107421875 573.1942749023438 591.2702026367188 574.4679565429688 600.7777099609375 575.3156127929688 C 610.76025390625 576.2056274414062 621.18603515625 576.6567993164062 631.7655639648438 576.6567993164062 C 649.8252563476562 576.6567993164062 670.5319213867188 577.7734375 695.0690307617188 580.0703125 C 716.9430541992188 582.1181030273438 739.806396484375 584.8967895507812 761.9170532226562 587.5841064453125 C 784.1923828125 590.2914428710938 807.2261962890625 593.0909423828125 829.3519287109375 595.1581420898438 C 854.1605224609375 597.4759521484375 875.13720703125 598.6026000976562 893.4801025390625 598.6026000976562 C 920.9722290039062 598.6026000976562 943.702392578125 596.1156005859375 962.96923828125 590.9996337890625 C 1019.021606445312 576.1156005859375 1065.098510742188 561.5133056640625 1103.833374023438 546.3580932617188 C 1124.673217773438 538.2044677734375 1143.848022460938 529.6849365234375 1160.8251953125 521.0364379882812 C 1169.5751953125 516.5789794921875 1177.972045898438 511.9712829589844 1185.7822265625 507.3416137695312 C 1193.721557617188 502.6356201171875 1201.301879882812 497.7601318359375 1208.312744140625 492.8509521484375 C 1215.426513671875 487.8694458007812 1222.173950195312 482.699462890625 1228.367065429688 477.4844360351562 C 1234.641235351562 472.2012939453125 1240.5390625 466.7097778320312 1245.896850585938 461.16259765625 C 1251.317260742188 455.55078125 1256.350219726562 449.7109375 1260.856079101562 443.8051147460938 C 1265.409057617188 437.8372802734375 1269.56201171875 431.6211242675781 1273.19970703125 425.3291015625 C 1276.871948242188 418.977294921875 1280.130004882812 412.35595703125 1282.8837890625 405.6491088867188 C 1285.661254882812 398.8839721679688 1288.00927734375 391.82763671875 1289.862670898438 384.6759643554688 C 1291.730712890625 377.4676208496094 1293.15234375 369.94580078125 1294.088256835938 362.3194580078125 C 1295.030883789062 354.6381225585938 1295.508666992188 346.62060546875 1295.508666992188 338.4894409179688 C 1295.508666992188 333.0601196289062 1295.246948242188 327.7759399414062 1294.730346679688 322.7839660644531 C 1294.220947265625 317.8606262207031 1293.448120117188 313.0691223144531 1292.433349609375 308.5427856445312 C 1291.434204101562 304.0864562988281 1290.169555664062 299.748291015625 1288.674194335938 295.6482849121094 C 1287.204833984375 291.6192932128906 1285.466430664062 287.693603515625 1283.507202148438 283.9802856445312 C 1276.066528320312 269.8776245117188 1265.014770507812 257.839111328125 1249.7197265625 247.1766052246094 C 1236.356567382812 237.8607788085938 1219.675537109375 229.4619445800781 1197.223388671875 220.7449645996094 C 1176.95703125 212.87646484375 1153.829711914062 205.470947265625 1129.344604492188 197.6307983398438 C 1106.055541992188 190.1734619140625 1081.973754882812 182.4624633789062 1056.20703125 173.1336059570312 C 1033.390869140625 164.8727722167969 1011.28271484375 151.1637878417969 987.8764038085938 136.6497802734375 C 969.1654052734375 125.0474548339844 949.8175659179688 113.0501098632812 928.7579345703125 102.9994506835938 C 917.384765625 97.57177734375 906.618408203125 93.22943115234375 895.8438720703125 89.72442626953125 C 889.985595703125 87.81878662109375 884.0650634765625 86.151611328125 878.2468872070312 84.76959228515625 C 872.1250610351562 83.3154296875 865.9095458984375 82.12744140625 859.7730712890625 81.23876953125 C 853.79541015625 80.37310791015625 847.235595703125 78.762451171875 839.71875 76.31475830078125 C 833.020263671875 74.13360595703125 825.6895751953125 71.32611083984375 817.3075561523438 67.7318115234375 C 801.7275390625 61.05078125 785.283203125 52.84814453125 767.8732299804688 44.16375732421875 C 746.8140869140625 33.65911865234375 725.0377197265625 22.79681396484375 704.5178833007812 14.6334228515625 C 693.46240234375 10.235107421875 683.7608642578125 7.00177001953125 674.8590698242188 4.748291015625 C 670.0347290039062 3.5269775390625 665.403076171875 2.59228515625 661.0928955078125 1.970458984375 C 656.5733642578125 1.31829833984375 652.25390625 0.98760986328125 648.25439453125 0.98760986328125 C 639.24853515625 0.98760986328125 630.2178955078125 0.94647216796875 621.4845581054688 0.90679931640625 C 613.0338745117188 0.8682861328125 604.2957153320312 0.82843017578125 595.8635864257812 0.82843017578125 M 595.8635864257812 -0.1715087890625 C 612.9179077148438 -0.1715087890625 630.4412231445312 -0.01239013671875 648.25439453125 -0.01239013671875 C 708.4019165039062 -0.01239013671875 804.8007202148438 72.26678466796875 859.9163818359375 80.2491455078125 C 942.3453979492188 92.18695068359375 997.424072265625 150.7872924804688 1056.547607421875 172.1932983398438 C 1194.171508789062 222.0204467773438 1296.508666992188 229.765625 1296.508666992188 338.4894409179688 C 1296.508666992188 470.2887878417969 1173.943359375 536.0128173828125 963.2258911132812 591.9661254882812 C 942.4138793945312 597.4924926757812 918.7957763671875 599.6026611328125 893.4801025390625 599.6026611328125 C 811.8128662109375 599.6026611328125 712.3895263671875 577.6567993164062 631.7655639648438 577.6567993164062 C 489.9892578125 577.6567993164062 444.2400512695312 498.5102844238281 341.1572265625 470.4569702148438 C 183.61669921875 427.5829467773438 0.0001220703125 451.4069519042969 0.0001220703125 338.4894409179688 C 0.0001220703125 239.7801208496094 15.966552734375 177.1802978515625 145.398193359375 115.1371154785156 C 186.680419921875 95.34844970703125 227.9068603515625 95.214111328125 313.6688842773438 80.2491455078125 C 348.4157104492188 74.18597412109375 420.5557250976562 30.28277587890625 435.6542358398438 22.58526611328125 C 476.0021362304688 2.01483154296875 532.67138671875 -0.1715087890625 595.8635864257812 -0.1715087890625 Z" stroke="none" fill="#ebebeb"/>
    </g>
    <g id="パス_9" data-name="パス 9" transform="translate(349.468 336.415)" fill="none" opacity="0.45">
      <path d="M623.416-.029c57.843,0,153.641,58.381,206.644,65.554,79.271,10.727,129.146,69.954,186,89.189,132.351,44.774,230.767,51.734,230.767,149.433,0,118.434-117.869,177.493-320.513,227.773-84.581,20.986-217.043-9.2-318.612-9.2-136.344,0-180.488-74.777-279.621-99.986C176.581,384.206,0,405.614,0,304.147c0-88.7,15.355-144.952,139.827-200.7,39.7-17.782,79.347-17.9,161.823-31.35,33.415-5.448,102.791-44.9,117.311-51.816C468.235-3.2,542.81-.029,623.416-.029Z" stroke="none"/>
      <path d="M 573.0325317382812 0.82830810546875 C 544.6856079101562 0.82830810546875 514.7484130859375 1.22662353515625 487.865478515625 4.11553955078125 C 474.092529296875 5.595703125 462.0643920898438 7.60430908203125 451.09375 10.25616455078125 C 445.278564453125 11.661865234375 439.713623046875 13.2706298828125 434.5535888671875 15.037841796875 C 429.199951171875 16.87139892578125 424.0986938476562 18.93804931640625 419.3916015625 21.18035888671875 C 416.5634765625 22.527587890625 411.5712890625 25.1536865234375 405.2508544921875 28.478515625 C 392.4408569335938 35.2169189453125 373.0820922851562 45.40032958984375 353.9030151367188 54.26864624023438 C 343.3729858398438 59.13772583007812 333.907470703125 63.14016723632812 325.7691650390625 66.16510009765625 C 316.1974487304688 69.72280883789062 308.1368408203125 72.049560546875 301.8113403320312 73.0809326171875 C 277.1914672851562 77.09524536132812 256.5100708007812 79.90573120117188 238.26318359375 82.38525390625 C 217.3973388671875 85.22079467773438 199.3768310546875 87.66970825195312 183.643310546875 90.89187622070312 C 175.396484375 92.58078002929688 168.067626953125 94.41726684570312 161.238037109375 96.505859375 C 153.8682861328125 98.75985717773438 146.9984130859375 101.327880859375 140.236083984375 104.3567810058594 C 124.892822265625 111.2290954589844 110.877197265625 118.277099609375 98.578125 125.3051147460938 C 86.47509765625 132.2210998535156 75.5396728515625 139.4007873535156 66.0753173828125 146.6449584960938 C 47.783935546875 160.6454162597656 34.0511474609375 175.4672546386719 24.0924072265625 191.9572448730469 C 19.3656005859375 199.7841796875 15.529052734375 207.878173828125 12.3636474609375 216.7021789550781 C 9.3828125 225.0108032226562 7.0814208984375 233.7392578125 5.327880859375 243.3863220214844 C 2.334716796875 259.8521728515625 0.9998779296875 278.591552734375 0.9998779296875 304.1473999023438 C 0.9998779296875 308.4561767578125 1.328369140625 312.6346435546875 1.9761962890625 316.5669555664062 C 2.611328125 320.4217224121094 3.5723876953125 324.1550903320312 4.8326416015625 327.6636962890625 C 6.0672607421875 331.1006469726562 7.6265869140625 334.426025390625 9.46728515625 337.5474243164062 C 11.269287109375 340.603271484375 13.396240234375 343.5570983886719 15.7890625 346.3270874023438 C 18.12890625 349.035888671875 20.795166015625 351.6520385742188 23.713623046875 354.103271484375 C 26.5615234375 356.4951171875 29.738037109375 358.8038635253906 33.1551513671875 360.9656982421875 C 39.684814453125 365.0966186523438 47.443115234375 368.9050903320312 56.2147216796875 372.2852478027344 C 64.4647216796875 375.4644775390625 73.61181640625 378.302001953125 84.1783447265625 380.9601745605469 C 93.673583984375 383.3488159179688 104.158203125 385.5494079589844 116.2315673828125 387.6875610351562 C 138.7928466796875 391.68310546875 163.3526611328125 394.830322265625 189.3543701171875 398.162353515625 C 211.8192138671875 401.0411071777344 235.048828125 404.0178833007812 258.4397583007812 407.7388000488281 C 284.9308471679688 411.9529418945312 307.792724609375 416.5403442382812 328.3319091796875 421.7632446289062 C 337.6270141601562 424.126953125 346.6451416015625 426.9621887207031 355.901611328125 430.4307861328125 C 364.1522216796875 433.5224914550781 372.4088745117188 437.0521850585938 381.1434936523438 441.2217102050781 C 397.3634643554688 448.9643249511719 412.86669921875 457.8289489746094 427.8594360351562 466.4017333984375 C 439.6926879882812 473.1678771972656 451.9287109375 480.1643371582031 464.555908203125 486.6408081054688 C 478.7185668945312 493.90478515625 491.8303833007812 499.7017211914062 504.6409912109375 504.3626403808594 C 520.0266723632812 509.9606323242188 535.2865600585938 514.0732421875 551.2923583984375 516.935546875 C 559.9739379882812 518.488037109375 568.9863891601562 519.676025390625 578.0792846679688 520.466796875 C 587.6283569335938 521.297119140625 597.5963745117188 521.718017578125 607.70654296875 521.718017578125 C 624.541748046875 521.718017578125 643.8162231445312 522.5593872070312 666.6309814453125 524.2903442382812 C 686.97900390625 525.8340454101562 708.2589721679688 527.931396484375 728.8382568359375 529.959716796875 C 749.7174682617188 532.017578125 771.3076171875 534.1455688476562 792.1209716796875 535.7188110351562 C 815.4691162109375 537.4835815429688 835.2734375 538.3414306640625 852.6654663085938 538.3414306640625 C 882.0174560546875 538.3414306640625 906.0308837890625 535.9234008789062 926.0780639648438 530.9494018554688 C 979.9830322265625 517.5746459960938 1024.294799804688 504.4529418945312 1061.545776367188 490.83447265625 C 1081.587036132812 483.5077209472656 1100.026977539062 475.8521728515625 1116.353515625 468.080810546875 C 1124.76806640625 464.0754089355469 1132.842895507812 459.9352416992188 1140.353515625 455.7752685546875 C 1147.987915039062 451.546630859375 1155.27734375 447.166015625 1162.018798828125 442.7549438476562 C 1168.859130859375 438.2794189453125 1175.346801757812 433.6343383789062 1181.3017578125 428.9489440917969 C 1187.333984375 424.20263671875 1193.00439453125 419.2694091796875 1198.1552734375 414.2863159179688 C 1203.36572265625 409.2457275390625 1208.203735351562 404.0003356933594 1212.534790039062 398.696044921875 C 1216.91064453125 393.3367919921875 1220.901977539062 387.754638671875 1224.397827148438 382.1046447753906 C 1227.92626953125 376.4017333984375 1231.056884765625 370.4570922851562 1233.702514648438 364.4357299804688 C 1236.370971679688 358.3626403808594 1238.626831054688 352.0283203125 1240.407348632812 345.608642578125 C 1242.201904296875 339.1380310058594 1243.567749023438 332.3860168457031 1244.466796875 325.5401611328125 C 1245.372436523438 318.6446533203125 1245.831420898438 311.4470825195312 1245.831420898438 304.1473999023438 C 1245.831420898438 294.4830932617188 1244.837768554688 285.4417114257812 1242.878173828125 277.274169921875 C 1241.9189453125 273.2763366699219 1240.704711914062 269.3843383789062 1239.269165039062 265.7063293457031 C 1237.858276367188 262.0917053222656 1236.18896484375 258.5697021484375 1234.307983398438 255.2381896972656 C 1227.159912109375 242.5789489746094 1216.539428710938 231.7703247070312 1201.839477539062 222.1949462890625 C 1188.989624023438 213.8246459960938 1172.948486328125 206.2780151367188 1151.357421875 198.4452514648438 C 1131.867309570312 191.3746337890625 1109.626098632812 184.7200317382812 1086.078979492188 177.6748046875 C 1063.682373046875 170.9737243652344 1040.523315429688 164.0446472167969 1015.744262695312 155.6617126464844 C 993.0439453125 147.982177734375 971.553466796875 134.0281677246094 948.8011474609375 119.2549438476562 C 931.583740234375 108.0755615234375 913.7803955078125 96.51556396484375 894.28466796875 86.91879272460938 C 883.7591552734375 81.73770141601562 873.758544921875 77.61911010742188 863.7113037109375 74.32772827148438 C 858.2491455078125 72.538330078125 852.7168579101562 70.98556518554688 847.2679443359375 69.71249389648438 C 841.5348510742188 68.37295532226562 835.7001953125 67.29757690429688 829.9259033203125 66.51617431640625 C 806.4859619140625 63.34417724609375 775.0552978515625 50.3497314453125 741.7791748046875 36.59234619140625 C 720.8519287109375 27.9403076171875 699.2122192382812 18.993896484375 678.8642578125 12.2529296875 C 667.8948364257812 8.61907958984375 658.296875 5.94696044921875 649.5216064453125 4.083740234375 C 639.6585693359375 1.9893798828125 631.119140625 0.971435546875 623.415771484375 0.971435546875 C 614.755126953125 0.971435546875 606.070556640625 0.93450927734375 597.6719360351562 0.89862060546875 C 589.545166015625 0.86419677734375 581.1416015625 0.82830810546875 573.0325317382812 0.82830810546875 M 573.0325927734375 -0.17156982421875 C 589.4334716796875 -0.17156982421875 606.28515625 -0.028564453125 623.415771484375 -0.028564453125 C 681.258544921875 -0.028564453125 777.0562744140625 58.35247802734375 830.06005859375 65.5252685546875 C 909.3306884765625 76.25262451171875 959.20654296875 135.479248046875 1016.064697265625 154.7144775390625 C 1148.415283203125 199.4889526367188 1246.831420898438 206.4487915039062 1246.831420898438 304.1473999023438 C 1246.831420898438 422.5815734863281 1128.962280273438 481.640625 926.31884765625 531.9200439453125 C 904.5076904296875 537.3317260742188 879.493896484375 539.3413696289062 852.6654663085938 539.3413696289062 C 775.456787109375 539.3413696289062 683.0838623046875 522.718017578125 607.70654296875 522.718017578125 C 471.3623657226562 522.718017578125 427.2183837890625 447.9412536621094 328.08544921875 422.7324829101562 C 176.581298828125 384.2061767578125 -0.0001220703125 405.6143188476562 -0.0001220703125 304.1473999023438 C -0.0001220703125 215.4477233886719 15.3548583984375 159.1958618164062 139.8272705078125 103.4441833496094 C 179.5274658203125 85.66217041015625 219.1741943359375 85.54156494140625 301.650390625 72.09402465820312 C 335.0657958984375 66.64556884765625 404.4415893554688 27.19464111328125 418.9614868164062 20.277587890625 C 457.7635498046875 1.7930908203125 512.2616577148438 -0.17156982421875 573.0325927734375 -0.17156982421875 Z" stroke="none" fill="#ebebeb"/>
    </g>
  </g>
</svg>
