<svg xmlns="http://www.w3.org/2000/svg" viewBox="0 0 1746.094 798.797">
  <g id="グループ_14" data-name="グループ 14" transform="translate(-200.847 -277)" opacity="0.3">
    <g id="パス_1" data-name="パス 1" transform="translate(207.371 293.725)" fill="none" opacity="0.446">
      <path d="M998.5-16.725c173.183,0,201.521,188.893,339.49,221.325,267.627,62.91,401.554,45.72,401.554,176.446,0,124.378,6.673,154.217-197.14,235.34-120.9,48.121-288.307,165.686-477.742,165.686-123.646,0-340.415-114.869-558.576-144.675-112.72-15.4-271.269,55.756-321.226,42.791C-62.579,615.971.73,491.364.73,366.39c0-105.244,157.1-138.857,341.868-191.352,79.723-22.65,131.153-80.683,232.451-96.763C681.7,61.345,876.1-16.725,998.5-16.725Z" stroke="none"/>
      <path d="M 998.5013427734375 -15.72454833984375 C 989.3858642578125 -15.72454833984375 979.5088500976562 -15.2811279296875 969.14453125 -14.4063720703125 C 959.2994995117188 -13.57568359375 948.7020263671875 -12.329345703125 937.6463012695312 -10.70184326171875 C 917.3367919921875 -7.7122802734375 895.206787109375 -3.44049072265625 869.9920043945312 2.35791015625 C 823.39404296875 13.0733642578125 775.0667724609375 26.99725341796875 728.3303833007812 40.46270751953125 C 670.7222290039062 57.0606689453125 616.30908203125 72.7379150390625 575.20654296875 79.2626953125 C 516.949462890625 88.51043701171875 475.2978515625 111.6406860351562 435.0177001953125 134.00927734375 C 419.929931640625 142.387939453125 405.6790771484375 150.3018188476562 390.5765380859375 157.5429077148438 C 382.4525146484375 161.4381713867188 374.874267578125 164.7551879882812 367.4090576171875 167.68408203125 C 359.044921875 170.9654541015625 351.018798828125 173.6856689453125 342.8719482421875 176.0001831054688 C 326.5693359375 180.6320190429688 310.36865234375 185.1483764648438 294.7015380859375 189.51611328125 C 253.818115234375 200.9136352539062 215.2020263671875 211.6790771484375 180.0408935546875 222.979736328125 C 161.2342529296875 229.0240478515625 144.9281005859375 234.7333984375 130.1904296875 240.43408203125 C 113.8017578125 246.77294921875 99.6318359375 252.98681640625 86.87060546875 259.4302062988281 C 80.180419921875 262.8083801269531 73.8389892578125 266.2811279296875 68.0224609375 269.7518005371094 C 62.0181884765625 273.3345336914062 56.3724365234375 277.0352172851562 51.2418212890625 280.7506713867188 C 45.967041015625 284.5706481933594 41.06494140625 288.5308837890625 36.6715087890625 292.5211181640625 C 32.169677734375 296.6101989746094 28.058349609375 300.8617858886719 24.4515380859375 305.157470703125 C 20.765380859375 309.5476989746094 17.489990234375 314.1227111816406 14.71630859375 318.7554321289062 C 11.886962890625 323.4808959960938 9.4915771484375 328.4138488769531 7.5960693359375 333.4172668457031 C 5.6649169921875 338.5147399902344 4.193115234375 343.8436279296875 3.2213134765625 349.2558898925781 C 2.2320556640625 354.7649841308594 1.73046875 360.5299682617188 1.73046875 366.3904418945312 C 1.73046875 387.8961181640625 -0.156005859375 409.568603515625 -1.980224609375 430.5274963378906 C -3.0653076171875 442.9924926757812 -4.187255859375 455.8820190429688 -4.8604736328125 468.3127136230469 C -5.61279296875 482.20361328125 -5.72119140625 494.1849670410156 -5.192138671875 504.9413452148438 C -4.559814453125 517.79296875 -3.0277099609375 529.263427734375 -0.508056640625 540.0079345703125 C 0.8533935546875 545.812255859375 2.531982421875 551.4736328125 4.4818115234375 556.835205078125 C 6.5233154296875 562.4490966796875 8.933837890625 567.9327392578125 11.6466064453125 573.1340942382812 C 14.4708251953125 578.549072265625 17.7178955078125 583.841552734375 21.2978515625 588.8643188476562 C 25.0087890625 594.0709228515625 29.1988525390625 599.1583862304688 33.7515869140625 603.9854736328125 C 38.4547119140625 608.9718017578125 43.6949462890625 613.8397216796875 49.3267822265625 618.45361328125 C 55.127685546875 623.2058715820312 61.525390625 627.8377075195312 68.3426513671875 632.220458984375 C 75.3460693359375 636.722900390625 83.0081787109375 641.101318359375 91.1156005859375 645.2340698242188 C 99.42626953125 649.469970703125 108.4581298828125 653.5770263671875 117.96044921875 657.440673828125 C 127.6812744140625 661.3933715820312 138.1881103515625 665.2108764648438 149.1890869140625 668.7872314453125 C 160.42333984375 672.4395141601562 172.509765625 675.9497680664062 185.112060546875 679.220458984375 C 189.1461181640625 680.2672729492188 193.9212646484375 680.776123046875 199.710693359375 680.776123046875 C 223.0672607421875 680.776123046875 257.9481201171875 672.32177734375 298.3370361328125 662.53271484375 C 324.64990234375 656.1552124023438 354.4736328125 648.9268188476562 383.993408203125 643.4772338867188 C 417.7996826171875 637.236572265625 446.449462890625 634.2029418945312 471.5797119140625 634.2029418945312 C 483.8636474609375 634.2029418945312 495.51904296875 634.9443359375 506.222412109375 636.4065551757812 C 519.6229248046875 638.2374877929688 533.5361328125 640.4663696289062 547.57568359375 643.0311279296875 C 560.89404296875 645.4642944335938 574.7469482421875 648.2767944335938 588.749755859375 651.3906860351562 C 614.4356689453125 657.1027221679688 641.015380859375 663.877685546875 670.0076904296875 672.1029052734375 C 723.5036010742188 687.279541015625 774.7374267578125 704.4310913085938 824.2843017578125 721.0181884765625 C 871.9381103515625 736.9713745117188 916.9490356445312 752.0397338867188 957.499755859375 763.0577392578125 C 979.1517944335938 768.940673828125 997.9188232421875 773.2386474609375 1014.873168945312 776.197265625 C 1023.988159179688 777.7877197265625 1032.705810546875 779.0025024414062 1040.784057617188 779.8077392578125 C 1049.203857421875 780.6470336914062 1057.237915039062 781.0726928710938 1064.6630859375 781.0726928710938 C 1081.5234375 781.0726928710938 1098.872314453125 780.1204223632812 1116.227905273438 778.2424926757812 C 1132.655395507812 776.4649658203125 1149.594970703125 773.8029174804688 1166.576293945312 770.3304443359375 C 1182.516967773438 767.0706787109375 1199.00927734375 762.9909057617188 1215.594970703125 758.2042846679688 C 1230.984008789062 753.762939453125 1246.990478515625 748.5574951171875 1263.169311523438 742.7324829101562 C 1291.063110351562 732.6895141601562 1320.618896484375 720.4224853515625 1353.525146484375 705.230224609375 C 1382.506103515625 691.8504638671875 1410.069458007812 678.091796875 1436.725463867188 664.786376953125 C 1474.418334960938 645.9715576171875 1510.020874023438 628.2001953125 1542.035400390625 615.4574584960938 C 1567.43017578125 605.3495483398438 1588.728637695312 596.3706665039062 1607.14794921875 588.0076904296875 C 1626.310424804688 579.3072509765625 1642.29833984375 571.3029174804688 1656.025634765625 563.5372314453125 C 1683.408325195312 548.0463256835938 1701.9228515625 533.3974609375 1714.2919921875 517.4359130859375 C 1720.256103515625 509.73974609375 1724.865600585938 501.65771484375 1728.38427734375 492.7279357910156 C 1731.6572265625 484.4222412109375 1734.02001953125 475.2667846679688 1735.607666015625 464.7386169433594 C 1737.001831054688 455.4954223632812 1737.83837890625 445.0431518554688 1738.240600585938 431.8442993164062 C 1738.60546875 419.8827209472656 1738.582275390625 406.5842895507812 1738.557861328125 392.5052185058594 C 1738.551513671875 388.7947692871094 1738.544921875 384.9581604003906 1738.544921875 381.0463562011719 C 1738.544921875 374.9331665039062 1738.244262695312 369.0517883300781 1737.651123046875 363.565673828125 C 1737.060424804688 358.1013488769531 1736.159912109375 352.8465576171875 1734.974731445312 347.947265625 C 1733.797241210938 343.0809020996094 1732.299560546875 338.4020385742188 1730.52294921875 334.0408935546875 C 1728.76220703125 329.7192993164062 1726.668334960938 325.5636291503906 1724.29931640625 321.6888427734375 C 1721.956787109375 317.858154296875 1719.265380859375 314.1715698242188 1716.299682617188 310.7313537597656 C 1713.374755859375 307.33837890625 1710.08203125 304.0681762695312 1706.512939453125 301.0115661621094 C 1699.497924804688 295.0036315917969 1691.325439453125 289.66748046875 1681.5283203125 284.6983947753906 C 1672.257934570312 279.996337890625 1661.71337890625 275.7186279296875 1649.292236328125 271.6211242675781 C 1637.928833007812 267.8724670410156 1625.01318359375 264.2870178222656 1609.807250976562 260.6597595214844 C 1581.057739257812 253.8020324707031 1547.737182617188 247.644775390625 1509.155151367188 240.5149536132812 C 1459.298583984375 231.302001953125 1402.789916992188 220.8594970703125 1337.76220703125 205.5738525390625 C 1330.2822265625 203.815673828125 1322.853393554688 201.5254516601562 1315.681762695312 198.7670288085938 C 1308.842895507812 196.1365966796875 1302.010375976562 192.9924926757812 1295.373779296875 189.4219970703125 C 1283.12451171875 182.83154296875 1271.244995117188 174.697265625 1259.056518554688 164.5543212890625 C 1248.900634765625 156.1027221679688 1238.3291015625 146.0540771484375 1226.738403320312 133.8345336914062 C 1216.404052734375 122.9395141601562 1206.197265625 111.3267822265625 1196.326538085938 100.0965576171875 C 1183.875854492188 85.9306640625 1171.001098632812 71.2822265625 1157.572509765625 57.71636962890625 C 1150.346069335938 50.4161376953125 1143.553588867188 44.01678466796875 1136.806396484375 38.15228271484375 C 1129.232666015625 31.56951904296875 1121.914306640625 25.82769775390625 1114.432373046875 20.59906005859375 C 1106.39794921875 14.98406982421875 1098.15673828125 9.98724365234375 1089.93798828125 5.74725341796875 C 1081.140869140625 1.20904541015625 1072.011474609375 -2.64794921875 1062.803588867188 -5.71685791015625 C 1053.056518554688 -8.96527099609375 1042.86181640625 -11.451171875 1032.502197265625 -13.105712890625 C 1021.62109375 -14.84344482421875 1010.181518554688 -15.72454833984375 998.5013427734375 -15.72454833984375 M 998.5013427734375 -16.72454833984375 C 1171.684692382812 -16.72454833984375 1200.0224609375 172.1686401367188 1337.991088867188 204.6004638671875 C 1605.618408203125 267.5102233886719 1739.544921875 250.3200073242188 1739.544921875 381.0463562011719 C 1739.544921875 505.4247436523438 1746.217895507812 535.26318359375 1542.405151367188 616.3865966796875 C 1421.50634765625 664.5079345703125 1254.0986328125 782.0726928710938 1064.6630859375 782.0726928710938 C 941.0174560546875 782.0726928710938 724.2479248046875 667.20361328125 506.0870361328125 637.3974609375 C 494.98291015625 635.88037109375 483.42578125 635.2029418945312 471.579833984375 635.2029418945312 C 373.31103515625 635.2029418945312 254.5986328125 681.776123046875 199.7105712890625 681.776123046875 C 194.0491943359375 681.776123046875 189.0716552734375 681.28125 184.86083984375 680.1884155273438 C -62.579345703125 615.9708862304688 0.73046875 491.3640747070312 0.73046875 366.3904418945312 C 0.73046875 261.1465759277344 157.8306884765625 227.5331420898438 342.5986328125 175.0383911132812 C 422.321533203125 152.38818359375 473.7510986328125 94.355224609375 575.0496826171875 78.27496337890625 C 681.7024536132812 61.344970703125 876.10498046875 -16.72454833984375 998.5013427734375 -16.72454833984375 Z" stroke="none" fill="#ebebeb"/>
    </g>
    <g id="パス_2" data-name="パス 2" transform="translate(238.371 325.457)" fill="none" opacity="0.446">
      <path d="M893.843-16.725c155.149,0,180.536,173.886,304.137,203.741,239.758,57.912,389.64,58.133,389.64,178.473,0,114.5-23.923,125.918-206.512,200.6-108.309,44.3-258.284,152.522-427.992,152.522-110.77,0-304.966-105.743-500.409-133.181-100.982-14.177-243.021,51.326-287.775,39.391C-56.742,565.7-.025,451-.025,335.952c0-96.882,140.741-127.825,306.268-176.149,71.421-20.851,117.495-74.273,208.245-89.075C610.034,55.142,784.193-16.725,893.843-16.725Z" stroke="none"/>
      <path d="M 893.8433227539062 -15.72454833984375 C 885.680908203125 -15.72454833984375 876.8361206054688 -15.3165283203125 867.5545043945312 -14.51153564453125 C 858.7373046875 -13.74713134765625 849.24609375 -12.5999755859375 839.3442993164062 -11.10235595703125 C 821.153076171875 -8.35076904296875 801.3309326171875 -4.4189453125 778.7451171875 0.9178466796875 C 737.0029296875 10.78125 693.709716796875 23.59844970703125 651.8419189453125 35.99365234375 C 600.2291259765625 51.27386474609375 551.4786987304688 65.7066650390625 514.648681640625 71.7142333984375 C 462.4801025390625 80.2236328125 425.17529296875 101.5108642578125 389.0987548828125 122.0970458984375 C 375.5806884765625 129.8108520507812 362.812255859375 137.0968627929688 349.279296875 143.7642211914062 C 341.9986572265625 147.3512573242188 335.2069091796875 150.4060668945312 328.516357421875 153.10302734375 C 321.01953125 156.125244140625 313.8255615234375 158.6306762695312 306.5230712890625 160.7626342773438 C 291.9178466796875 165.0264282226562 277.4039306640625 169.1840209960938 263.367919921875 173.204833984375 C 226.7432861328125 183.6964721679688 192.1495361328125 193.6062622070312 160.652099609375 204.0084533691406 C 143.8065185546875 209.5718383789062 129.2005615234375 214.82666015625 115.99951171875 220.0734558105469 C 101.3212890625 225.9072570800781 88.6302490234375 231.6258544921875 77.2015380859375 237.5556640625 C 71.2103271484375 240.6640625 65.53173828125 243.8596496582031 60.3231201171875 247.0532531738281 C 54.9466552734375 250.3496398925781 49.8914794921875 253.7544555664062 45.2977294921875 257.1728515625 C 40.5753173828125 260.6870422363281 36.1865234375 264.3302612304688 32.2532958984375 268.0012512207031 C 28.2232666015625 271.7626647949219 24.5428466796875 275.6732482910156 21.3140869140625 279.6248474121094 C 18.0145263671875 283.662841796875 15.08251953125 287.8710632324219 12.5997314453125 292.1320495605469 C 10.0672607421875 296.4784545898438 7.9227294921875 301.0158386230469 6.22607421875 305.6182556152344 C 4.497314453125 310.3074645996094 3.1796875 315.2094421386719 2.3096923828125 320.1880493164062 C 1.4239501953125 325.2564392089844 0.974853515625 330.56005859375 0.974853515625 335.9518432617188 C 0.974853515625 355.7512512207031 -0.715087890625 375.7028503417969 -2.3494873046875 394.9976501464844 C -3.321533203125 406.4718627929688 -4.32666015625 418.3368530273438 -4.9296875 429.779052734375 C -5.603515625 442.564453125 -5.70068359375 453.592041015625 -5.2266845703125 463.4920654296875 C -4.6605224609375 475.3192443847656 -3.288330078125 485.875244140625 -1.03173828125 495.7628479003906 C 0.187255859375 501.1036376953125 1.6905517578125 506.313232421875 3.4365234375 511.2464599609375 C 5.2645263671875 516.41162109375 7.4228515625 521.45703125 9.8516845703125 526.242431640625 C 12.3802490234375 531.2244873046875 15.2874755859375 536.09326171875 18.49267578125 540.7140502929688 C 21.8150634765625 545.5040283203125 25.5665283203125 550.1842651367188 29.6424560546875 554.6248779296875 C 33.8531494140625 559.2124633789062 38.544921875 563.690673828125 43.587158203125 567.9352416992188 C 48.7808837890625 572.3076171875 54.50927734375 576.5690307617188 60.6131591796875 580.6012573242188 C 66.88427734375 584.7440185546875 73.7451171875 588.7726440429688 81.005126953125 592.5752563476562 C 88.447265625 596.4732666015625 96.53564453125 600.25244140625 105.0452880859375 603.8080444335938 C 113.7513427734375 607.4454345703125 123.1612548828125 610.9586181640625 133.013671875 614.2498779296875 C 143.075927734375 617.6112670898438 153.901123046875 620.8418579101562 165.188720703125 623.85205078125 C 168.741455078125 624.7994384765625 173.1307373046875 625.2798461914062 178.2342529296875 625.2798461914062 C 199.14306640625 625.2798461914062 230.3848876953125 617.4990234375 266.5599365234375 608.4896240234375 C 290.13427734375 602.6182250976562 316.8541259765625 595.963623046875 343.3033447265625 590.9466552734375 C 373.5970458984375 585.2002563476562 399.2713623046875 582.4068603515625 421.792724609375 582.4068603515625 C 432.803466796875 582.4068603515625 443.2510986328125 583.08984375 452.8453369140625 584.4368286132812 C 464.852294921875 586.1224365234375 477.3187255859375 588.1744384765625 489.8980712890625 590.5358276367188 C 501.8310546875 592.7760620117188 514.2431030273438 595.365478515625 526.789306640625 598.2322387695312 C 549.8026733398438 603.4910278320312 573.6168823242188 609.728271484375 599.592529296875 617.3006591796875 C 647.5203247070312 631.2724609375 693.4202880859375 647.0618286132812 737.8088989257812 662.3314208984375 C 780.4987182617188 677.0164794921875 820.8209228515625 690.8872680664062 857.1453247070312 701.0288696289062 C 876.5386962890625 706.4432373046875 893.3477172851562 710.3990478515625 908.5325317382812 713.1216430664062 C 916.6953125 714.5852661132812 924.5018920898438 715.7030639648438 931.7359008789062 716.4440307617188 C 939.2744750976562 717.2162475585938 946.467529296875 717.6078491210938 953.1152954101562 717.6078491210938 C 968.215087890625 717.6078491210938 983.7525024414062 716.7316284179688 999.2963256835938 715.0032348632812 C 1014.008911132812 713.367431640625 1029.180297851562 710.9176635742188 1044.389282226562 707.7218627929688 C 1058.666870117188 704.7216796875 1073.438232421875 700.9668579101562 1088.293701171875 696.5614624023438 C 1102.07763671875 692.473876953125 1116.41455078125 687.682861328125 1130.906127929688 682.3214721679688 C 1155.891845703125 673.077880859375 1182.366455078125 661.78662109375 1211.843139648438 647.8030395507812 C 1237.804321289062 635.48681640625 1262.496704101562 622.8218383789062 1286.375854492188 610.5738525390625 C 1320.146240234375 593.2526245117188 1352.043701171875 576.8920288085938 1380.729125976562 565.1598510742188 C 1428.981323242188 545.4248657226562 1462.653564453125 531.5108642578125 1489.97314453125 518.4364624023438 C 1519.361083984375 504.3722534179688 1538.53955078125 492.5128479003906 1552.157470703125 479.9832458496094 C 1559.30615234375 473.4060668945312 1565.000854492188 466.5634460449219 1569.567504882812 459.064453125 C 1574.066284179688 451.6764526367188 1577.500244140625 443.59765625 1580.065307617188 434.3662414550781 C 1582.5048828125 425.5872497558594 1584.197265625 415.5988464355469 1585.2392578125 403.8304443359375 C 1586.18115234375 393.1918640136719 1586.619873046875 381.0086364746094 1586.619873046875 365.4892578125 C 1586.619873046875 359.6062622070312 1586.251708984375 353.9066467285156 1585.525756835938 348.5490417480469 C 1584.806762695312 343.2440490722656 1583.7138671875 338.1050415039062 1582.277465820312 333.2744445800781 C 1580.85791015625 328.5000610351562 1579.056884765625 323.8732604980469 1576.924682617188 319.5224609375 C 1574.820556640625 315.229248046875 1572.325317382812 311.0654602050781 1569.50830078125 307.1464538574219 C 1566.733642578125 303.2860412597656 1563.555541992188 299.536865234375 1560.062255859375 296.00244140625 C 1556.6298828125 292.5294494628906 1552.779296875 289.1490478515625 1548.617553710938 285.9548645019531 C 1544.541748046875 282.8264465332031 1540.030151367188 279.7716369628906 1535.208129882812 276.875244140625 C 1530.505737304688 274.0504455566406 1525.346313476562 271.2792358398438 1519.873046875 268.6386413574219 C 1499.90234375 259.0026550292969 1474.57373046875 250.4112548828125 1440.162719726562 241.6012573242188 C 1408.886108398438 233.5934448242188 1373.837280273438 226.2946472167969 1333.254516601562 217.8430480957031 C 1292.759521484375 209.4098510742188 1246.861572265625 199.8514404296875 1197.745483398438 187.9878540039062 C 1191.038940429688 186.3680419921875 1184.378295898438 184.258056640625 1177.9482421875 181.7168579101562 C 1171.81689453125 179.2936401367188 1165.691284179688 176.3970336914062 1159.74169921875 173.1078491210938 C 1148.761474609375 167.0374755859375 1138.11328125 159.545654296875 1127.188720703125 150.203857421875 C 1118.087524414062 142.4214477539062 1108.6142578125 133.1686401367188 1098.228149414062 121.917236328125 C 1088.96875 111.8866577148438 1079.824462890625 101.196044921875 1070.981079101562 90.85723876953125 C 1059.82763671875 77.81787109375 1048.29443359375 64.33447265625 1036.26611328125 51.8480224609375 C 1029.794067382812 45.129638671875 1023.710510253906 39.240234375 1017.667724609375 33.84326171875 C 1010.885314941406 27.78582763671875 1004.331726074219 22.50262451171875 997.6318969726562 17.69146728515625 C 990.4379272460938 12.52545166015625 983.05908203125 7.92803955078125 975.7005004882812 4.0272216796875 C 967.8251342773438 -0.14752197265625 959.652099609375 -3.69573974609375 951.40869140625 -6.51873779296875 C 942.6832885742188 -9.50677490234375 933.556884765625 -11.7935791015625 924.2828979492188 -13.31536865234375 C 914.54150390625 -14.9139404296875 904.30029296875 -15.72454833984375 893.8433227539062 -15.72454833984375 M 893.8433227539062 -16.72454833984375 C 1048.992431640625 -16.72454833984375 1074.379150390625 157.1610717773438 1197.980346679688 187.015869140625 C 1437.738159179688 244.9274597167969 1587.619873046875 245.1492614746094 1587.619873046875 365.4892578125 C 1587.619873046875 479.98583984375 1563.6962890625 491.4072570800781 1381.107666015625 566.08544921875 C 1272.798461914062 610.3834228515625 1122.823974609375 718.6078491210938 953.1152954101562 718.6078491210938 C 842.3455200195312 718.6078491210938 648.1491088867188 612.865234375 452.706298828125 585.4270629882812 C 442.758544921875 584.030517578125 432.405029296875 583.4068603515625 421.7926025390625 583.4068603515625 C 333.757080078125 583.4068603515625 227.4066162109375 626.27978515625 178.234375 626.27978515625 C 173.1624755859375 626.27978515625 168.7034912109375 625.82421875 164.93115234375 624.8182373046875 C -56.7420654296875 565.702880859375 -0.025146484375 450.9960327148438 -0.025146484375 335.9518432617188 C -0.025146484375 239.0696411132812 140.7154541015625 208.1268615722656 306.242919921875 159.8026733398438 C 377.6639404296875 138.9520263671875 423.7379150390625 85.52984619140625 514.4877319335938 70.72723388671875 C 610.0341186523438 55.14227294921875 784.1925048828125 -16.72454833984375 893.8433227539062 -16.72454833984375 Z" stroke="none" fill="#ebebeb"/>
    </g>
    <g id="パス_3" data-name="パス 3" transform="translate(263.371 349.445)" fill="none" opacity="0.446">
      <path d="M816.163-16.725c141.763,0,164.96,164.319,277.9,192.532,219.072,54.726,356.023,54.935,356.023,168.654,0,108.2-21.859,118.991-188.695,189.56-98.965,41.861-234.469,123.07-389.536,123.07-101.213,0-280.185-78.864-458.766-104.792-92.269-13.4-222.054,48.5-262.947,37.224C-52.409,533.66-.586,425.264-.586,316.549c0-91.552,128.6-120.793,279.844-166.458,65.259-19.7,107.358-70.187,190.278-84.175C556.84,51.188,715.972-16.725,816.163-16.725Z" stroke="none"/>
      <path d="M 816.16259765625 -15.72454833984375 C 808.7078247070312 -15.72454833984375 800.629638671875 -15.339111328125 792.1524047851562 -14.5787353515625 C 784.0984497070312 -13.85650634765625 775.4286499023438 -12.77294921875 766.3834228515625 -11.35791015625 C 749.7650146484375 -8.75830078125 731.656005859375 -5.0433349609375 711.0220336914062 -0.00091552734375 C 672.8843994140625 9.31884765625 633.3278198242188 21.43048095703125 595.0738525390625 33.14324951171875 C 547.9102172851562 47.58404541015625 503.3624267578125 61.223876953125 469.7028198242188 66.902099609375 C 422.0548095703125 74.9400634765625 387.976806640625 95.05126953125 355.0206298828125 114.500244140625 C 342.6676025390625 121.7904663085938 330.9996337890625 128.67626953125 318.6318359375 134.9780578613281 C 311.97705078125 138.3688659667969 305.76904296875 141.2566833496094 299.6531982421875 143.8064575195312 C 292.800048828125 146.6638793945312 286.2232666015625 149.032470703125 279.5474853515625 151.0482788085938 C 266.202392578125 155.0774841308594 252.9407958984375 159.0062866210938 240.115966796875 162.8058776855469 C 206.6522216796875 172.7198791503906 175.0440673828125 182.0840759277344 146.2662353515625 191.9132690429688 C 130.8758544921875 197.1698608398438 117.5318603515625 202.1350708007812 105.4718017578125 207.09228515625 C 92.063232421875 212.6038818359375 80.47021484375 218.0062866210938 70.0303955078125 223.6082763671875 C 58.93701171875 229.5608825683594 49.1334228515625 235.7952575683594 40.8914794921875 242.1382751464844 C 36.57861328125 245.4574584960938 32.57080078125 248.8982849121094 28.97900390625 252.3652648925781 C 25.298828125 255.9176635742188 21.93798828125 259.6108703613281 18.9896240234375 263.3426818847656 C 15.9764404296875 267.1564636230469 13.299072265625 271.1306762695312 11.0316162109375 275.1550598144531 C 8.7188720703125 279.2602844238281 6.7603759765625 283.5460815429688 5.2105712890625 287.89306640625 C 3.6318359375 292.3226623535156 2.42822265625 296.9532775878906 1.6334228515625 301.6564636230469 C 0.824462890625 306.4446716308594 0.4141845703125 311.4552612304688 0.4141845703125 316.549072265625 C 0.4141845703125 335.2600708007812 -1.1300048828125 354.1144714355469 -2.62353515625 372.3482666015625 C -3.5115966796875 383.1910705566406 -4.429931640625 394.403076171875 -4.98095703125 405.2154541015625 C -5.5965576171875 417.296875 -5.6854248046875 427.7168579101562 -5.2523193359375 437.0714721679688 C -4.7352294921875 448.2466735839844 -3.4813232421875 458.220458984375 -1.4197998046875 467.5626831054688 C -0.306396484375 472.6086730957031 1.0670166015625 477.5304565429688 2.661865234375 482.1912841796875 C 4.3316650390625 487.0708618164062 6.30322265625 491.8372802734375 8.5218505859375 496.3578491210938 C 10.8314208984375 501.0638732910156 13.486572265625 505.6630859375 16.4140625 510.0278930664062 C 19.448486328125 514.5520629882812 22.8743896484375 518.97265625 26.5968017578125 523.1670532226562 C 30.4423828125 527.4998779296875 34.72705078125 531.7294921875 39.331787109375 535.7386474609375 C 44.0750732421875 539.8682861328125 49.306640625 543.8932495117188 54.8812255859375 547.701904296875 C 60.60888671875 551.6148681640625 66.875 555.4202880859375 73.505859375 559.0120849609375 C 80.30322265625 562.694091796875 87.6910400390625 566.2640380859375 95.4638671875 569.6228637695312 C 103.4163818359375 573.0592651367188 112.0120849609375 576.3780517578125 121.0118408203125 579.4874877929688 C 130.20361328125 582.6630859375 140.0927734375 585.7152709960938 150.4041748046875 588.5592651367188 C 153.640869140625 589.4518432617188 157.6412353515625 589.9044799804688 162.2940673828125 589.9044799804688 C 181.38427734375 589.9044799804688 209.924072265625 582.553466796875 242.970458984375 574.04150390625 C 264.512451171875 568.4928588867188 288.9285888671875 562.203857421875 313.0992431640625 557.4622802734375 C 340.786865234375 552.0304565429688 364.2530517578125 549.3900756835938 384.8390502929688 549.3900756835938 C 394.9058227539062 549.3900756835938 404.4576416015625 550.035888671875 413.22900390625 551.3094482421875 C 433.6380004882812 554.272705078125 455.3994140625 558.140869140625 477.9086303710938 562.8062744140625 C 498.0724487304688 566.9856567382812 518.9638061523438 571.806640625 541.776611328125 577.544677734375 C 583.8964233398438 588.1390991210938 624.5038452148438 599.8408813476562 663.7744140625 611.157470703125 C 705.173828125 623.0874633789062 744.2770385742188 634.3558959960938 779.42724609375 642.6028442382812 C 798.1982421875 647.007080078125 814.4336547851562 650.2246704101562 829.06103515625 652.4400634765625 C 845.2848510742188 654.8970947265625 859.2816162109375 656.0914916992188 871.8511962890625 656.0914916992188 C 886.898193359375 656.0914916992188 902.3568115234375 655.3096923828125 917.797607421875 653.7678833007812 C 932.3990478515625 652.3096923828125 947.4302368164062 650.1270751953125 962.4738159179688 647.2807006835938 C 976.581787109375 644.6112670898438 991.1514282226562 641.2722778320312 1005.77783203125 637.3564453125 C 1019.33544921875 633.7266845703125 1033.40869140625 629.4756469726562 1047.606811523438 624.7216796875 C 1102.365234375 606.3860473632812 1153.232055664062 582.6070556640625 1198.111083984375 561.6272583007812 C 1220.380249023438 551.217041015625 1241.414184570312 541.3840942382812 1260.99755859375 533.1004638671875 C 1305.085205078125 514.451904296875 1335.850830078125 501.3040771484375 1360.81103515625 488.9502563476562 C 1387.65478515625 475.6640625 1405.171997070312 464.461669921875 1417.60888671875 452.6274719238281 C 1424.13623046875 446.416259765625 1429.336181640625 439.9542846679688 1433.505981445312 432.8724670410156 C 1437.614868164062 425.894287109375 1440.751220703125 418.2630615234375 1443.09423828125 409.5426635742188 C 1445.322631835938 401.2480773925781 1446.868774414062 391.8106689453125 1447.82080078125 380.6912841796875 C 1448.681396484375 370.6384582519531 1449.082275390625 359.1262817382812 1449.082275390625 344.4612731933594 C 1449.082275390625 322.505859375 1443.97021484375 304.4780578613281 1433.454223632812 289.3474731445312 C 1430.920654296875 285.7020568847656 1428.018676757812 282.1614685058594 1424.829223632812 278.8238830566406 C 1421.695190429688 275.5444641113281 1418.179443359375 272.3522644042969 1414.379638671875 269.3360595703125 C 1406.947998046875 263.4372863769531 1398.362060546875 258.0880737304688 1388.131225585938 252.982666015625 C 1369.889770507812 243.8800659179688 1346.752807617188 235.7638854980469 1315.317993164062 227.4404602050781 C 1286.7421875 219.8740844726562 1254.718872070312 212.9768676757812 1217.638671875 204.9906616210938 C 1180.636596679688 197.0212707519531 1138.697387695312 187.9884643554688 1093.817260742188 176.7772827148438 C 1087.684204101562 175.2452697753906 1081.59326171875 173.2496643066406 1075.71337890625 170.8462829589844 C 1070.106811523438 168.5546569824219 1064.505859375 165.815673828125 1059.065795898438 162.7052612304688 C 1049.027587890625 156.9658813476562 1039.29345703125 149.8826599121094 1029.307006835938 141.0510864257812 C 1020.988830566406 133.6948852539062 1012.3310546875 124.9492797851562 1002.838989257812 114.314697265625 C 994.3776245117188 104.8350830078125 986.0218505859375 94.7320556640625 977.9412231445312 84.961669921875 C 967.7506103515625 72.6402587890625 957.2132568359375 59.89947509765625 946.2238159179688 48.10150146484375 C 940.3114013671875 41.75384521484375 934.7537841796875 36.18988037109375 929.2338256835938 31.091064453125 C 923.038818359375 25.368896484375 917.0526123046875 20.37786865234375 910.9334106445312 15.833251953125 C 904.3632202148438 10.953857421875 897.6246337890625 6.6116943359375 890.9046630859375 2.92767333984375 C 883.7131958007812 -1.01495361328125 876.2504272460938 -4.36572265625 868.7236328125 -7.03155517578125 C 860.7568359375 -9.8531494140625 852.4240112304688 -12.01251220703125 843.9566040039062 -13.44952392578125 C 835.06201171875 -14.9591064453125 825.7108154296875 -15.72454833984375 816.16259765625 -15.72454833984375 M 816.16259765625 -16.72454833984375 C 957.92578125 -16.72454833984375 981.1221923828125 147.594482421875 1094.0595703125 175.8070678710938 C 1313.132080078125 230.532470703125 1450.082275390625 230.7418823242188 1450.082275390625 344.4612731933594 C 1450.082275390625 452.6588745117188 1428.222778320312 463.4518737792969 1261.38720703125 534.021484375 C 1162.422607421875 575.8826904296875 1026.91796875 657.0914916992188 871.8511962890625 657.0914916992188 C 770.6382446289062 657.0914916992188 591.666015625 578.2276611328125 413.08544921875 552.299072265625 C 403.9959106445312 550.9793701171875 394.5358276367188 550.3900756835938 384.8390502929688 550.3900756835938 C 304.39892578125 550.3900756835938 207.223876953125 590.9044189453125 162.2939453125 590.9044189453125 C 157.65966796875 590.9044189453125 153.5853271484375 590.4739379882812 150.138427734375 589.5232543945312 C -52.409423828125 533.6602783203125 -0.5858154296875 425.2640686035156 -0.5858154296875 316.549072265625 C -0.5858154296875 224.9968566894531 128.01220703125 195.7562866210938 279.2584228515625 150.0908813476562 C 344.5172119140625 130.3872680664062 386.6162109375 79.904296875 469.5364379882812 65.91607666015625 C 556.839599609375 51.1884765625 715.9720458984375 -16.72454833984375 816.16259765625 -16.72454833984375 Z" stroke="none" fill="#ebebeb"/>
    </g>
  </g>
</svg>
